<svg width="8" height="10" viewBox="0 0 8 10" fill="none" xmlns="http://www.w3.org/2000/svg">
<path fill-rule="evenodd" clip-rule="evenodd" d="M3.49174 9.87825L3.49404 9.88056L3.49558 9.8821C3.59653 9.9586 3.71971 10 3.84637 10C3.97303 10 4.09622 9.9586 4.19716 9.8821L4.1987 9.88056L4.20101 9.87825L4.21024 9.87133C4.25975 9.83309 4.30848 9.79385 4.3564 9.75363C4.92995 9.27012 5.4569 8.7339 5.93034 8.152C6.77731 7.10425 7.69274 5.58109 7.69274 3.84637C7.69274 2.82625 7.2875 1.84791 6.56617 1.12658C5.84483 0.405242 4.86649 0 3.84637 0C2.82625 0 1.84791 0.405242 1.12658 1.12658C0.405242 1.84791 0 2.82625 0 3.84637C0 5.58109 0.915436 7.10425 1.76318 8.152C2.23661 8.7339 2.76356 9.27012 3.33711 9.75363L3.48251 9.87133L3.49174 9.87825ZM3.84637 5.00028C3.99791 5.00028 4.14796 4.97044 4.28795 4.91245C4.42795 4.85446 4.55516 4.76946 4.66231 4.66231C4.76946 4.55516 4.85446 4.42795 4.91245 4.28796C4.97044 4.14796 5.00028 3.99791 5.00028 3.84637C5.00028 3.69484 4.97044 3.54479 4.91245 3.40479C4.85446 3.26479 4.76946 3.13758 4.66231 3.03043C4.55516 2.92328 4.42795 2.83829 4.28795 2.7803C4.14796 2.72231 3.99791 2.69246 3.84637 2.69246C3.54034 2.69246 3.24683 2.81403 3.03043 3.03043C2.81403 3.24683 2.69246 3.54034 2.69246 3.84637C2.69246 4.15241 2.81403 4.44591 3.03043 4.66231C3.24683 4.87871 3.54034 5.00028 3.84637 5.00028Z" fill="#0278AE"/>
</svg>
