<svg width="11" height="10" viewBox="0 0 11 10" fill="none" xmlns="http://www.w3.org/2000/svg">
<path d="M7.38645 6.41533L7.1188 6.68181C7.1188 6.68181 6.48173 7.31475 4.74348 5.5865C3.00523 3.85825 3.6423 3.22531 3.6423 3.22531L3.81053 3.05707C4.22642 2.64413 4.26583 1.98059 3.90289 1.49588L3.16171 0.505874C2.71229 -0.0941305 1.84464 -0.173543 1.32993 0.338226L0.406389 1.25588C0.151681 1.51 -0.0189084 1.83824 0.00168001 2.20295C0.0546216 3.13648 0.476978 5.14415 2.83229 7.48652C5.33055 9.97007 7.67468 10.0689 8.63293 9.97948C8.93646 9.95124 9.19999 9.79713 9.41234 9.58536L10.2476 8.75476C10.8124 8.19417 10.6535 7.2324 9.93117 6.84004L8.80763 6.22886C8.33351 5.9718 7.75704 6.0471 7.38645 6.41533Z" fill="#0278AE"/>
</svg>
