<svg width="230" height="230" viewBox="0 0 230 230" fill="none" xmlns="http://www.w3.org/2000/svg">
<g id="ant-design:star-filled">
<path id="Vector" d="M203.968 79.3097L146.939 71.0216L121.446 19.339C120.75 17.9239 119.605 16.7784 118.189 16.0821C114.641 14.3302 110.328 15.7901 108.554 19.339L83.0606 71.0216L26.0323 79.3097C24.46 79.5343 23.0225 80.2755 21.9219 81.3985C20.5914 82.7661 19.8582 84.6059 19.8834 86.5138C19.9087 88.4217 20.6904 90.2415 22.0567 91.5733L63.3174 131.801L53.5694 188.605C53.3408 189.926 53.487 191.285 53.9915 192.527C54.4959 193.77 55.3384 194.846 56.4235 195.634C57.5085 196.422 58.7926 196.891 60.1302 196.986C61.4678 197.081 62.8054 196.8 63.9912 196.174L115 169.356L166.009 196.174C167.401 196.915 169.019 197.162 170.568 196.893C174.477 196.219 177.105 192.513 176.431 188.605L166.683 131.801L207.943 91.5733C209.066 90.4727 209.808 89.0352 210.032 87.463C210.639 83.5323 207.898 79.8936 203.968 79.3097Z" fill="#FFD600"/>
</g>
</svg>
