<svg width="54" height="64" viewBox="0 0 54 64" fill="none" xmlns="http://www.w3.org/2000/svg" xmlns:xlink="http://www.w3.org/1999/xlink">
<path d="M43.877,33.368C43.91,30.915 44.577,28.509 45.817,26.376C47.058,24.242 48.831,22.45 50.971,21.165C49.612,19.269 47.818,17.708 45.732,16.607C43.646,15.506 41.326,14.896 38.957,14.823C33.901,14.305 29.001,17.776 26.425,17.776C23.799,17.776 19.833,14.875 15.562,14.96C12.799,15.048 10.107,15.832 7.747,17.237C5.387,18.642 3.441,20.62 2.097,22.978C-3.725,32.819 0.617,47.282 6.194,55.237C8.985,59.132 12.246,63.483 16.513,63.329C20.688,63.16 22.248,60.729 27.288,60.729C32.282,60.729 33.745,63.329 38.098,63.231C42.579,63.16 45.402,59.318 48.094,55.386C50.099,52.61 51.642,49.543 52.665,46.297C50.062,45.222 47.841,43.423 46.278,41.124C44.715,38.825 43.88,36.127 43.877,33.368Z" fill="#000000"/>
<path d="M35.655,9.592C38.098,6.729 39.302,3.049 39.01,-0.667C35.278,-0.284 31.83,1.457 29.354,4.211C28.144,5.556 27.217,7.121 26.626,8.816C26.035,10.511 25.792,12.303 25.911,14.09C27.778,14.109 29.625,13.714 31.313,12.934C33.001,12.155 34.485,11.013 35.655,9.592Z" fill="#000000"/>
</svg>
