<svg width="28" height="33" viewBox="0 0 28 33" fill="none" xmlns="http://www.w3.org/2000/svg">
<g id="Apple">
<path id="&#60;Path&#62;" d="M22.9392 17.6841C22.9554 16.4575 23.2891 15.2549 23.9092 14.1881C24.5294 13.1213 25.4159 12.225 26.4862 11.5826C25.8063 10.6345 24.9093 9.85429 23.8664 9.30388C22.8236 8.75348 21.6637 8.44805 20.4788 8.41185C17.9512 8.15283 15.5009 9.88846 14.2128 9.88846C12.8999 9.88846 10.9168 8.43757 8.78138 8.48046C7.40012 8.52403 6.05396 8.91617 4.87408 9.61868C3.6942 10.3212 2.72083 11.3101 2.04882 12.4891C-0.862138 17.4096 1.30918 24.6411 4.09768 28.6185C5.49284 30.5662 7.12336 32.7417 9.2569 32.6646C11.3447 32.58 12.1244 31.3648 14.6445 31.3648C17.1413 31.3648 17.8728 32.6646 20.0497 32.6155C22.29 32.58 23.7014 30.6592 25.0477 28.6932C26.0501 27.3054 26.8214 25.7717 27.3332 24.1487C26.0316 23.6113 24.9209 22.7117 24.1395 21.5621C23.3582 20.4125 22.9407 19.0637 22.9392 17.6841Z" fill="black"/>
<path id="&#60;Path&#62;_2" d="M18.8281 5.79613C20.0496 4.36453 20.6514 2.52443 20.5056 0.666626C18.6395 0.857985 16.9156 1.72875 15.6776 3.10543C15.0723 3.77798 14.6087 4.5604 14.3134 5.40797C14.018 6.25554 13.8966 7.15163 13.9561 8.04503C14.8896 8.05441 15.813 7.85689 16.6569 7.46734C17.5008 7.0778 18.2431 6.50638 18.8281 5.79613Z" fill="black"/>
</g>
</svg>
