<svg width="116" height="116" viewBox="0 0 116 116" fill="none" xmlns="http://www.w3.org/2000/svg">
<g id="Capa_1" clip-path="url(#clip0_26_7983)">
<path id="Vector" d="M56.202 0H59.798C77.2893 0.988967 89.7608 7.6514 99.006 16.987C108.253 26.3225 115.086 38.6366 116 56.2548V59.7452C115.113 77.6455 108.157 89.4593 99.006 99.0712C89.3939 108.202 77.5764 115.12 59.74 116H56.202C38.7136 115.008 26.2392 108.35 16.994 99.013C7.74735 89.676 0.9135 77.3634 0 59.7452V56.2548C0.04495 56.2417 0.06815 56.2068 0.058 56.1384C0.93235 38.5872 7.8039 26.1465 16.994 16.9288C26.2261 7.66886 38.8266 0.95988 56.202 0ZM44.834 8.31896C41.3874 9.24393 38.2974 10.4205 35.496 11.8094C26.97 16.0387 19.9389 22.0889 15.022 29.8435C10.2239 37.4135 6.06825 47.1505 6.67 59.9198C7.0499 67.9697 8.88125 74.7412 11.774 80.5135C17.487 91.9114 26.1856 100.309 38.222 105.412C44.1742 107.936 51.5504 109.707 59.856 109.31C67.8223 108.929 74.7257 107.133 80.446 104.249C91.6559 98.5956 100.489 89.8724 105.386 77.8375C107.863 71.7496 109.735 64.7163 109.33 56.1966C108.564 40.0575 102.018 29.1134 93.38 20.7683C89.1054 16.6394 83.9594 13.1271 77.894 10.5878C72.0099 8.12407 64.3481 6.29885 56.144 6.69007C52.1101 6.88205 48.3053 7.38671 44.8326 8.31896H44.834Z" fill="#8A9CA7"/>
<path id="Vector_2" d="M52.6641 42.9329C54.5013 44.1531 56.3819 45.3326 58.1161 46.656C54.1968 49.1241 50.3557 51.6707 46.4581 54.1605C47.0497 54.6143 47.7225 54.9866 48.3141 55.4404C52.2436 52.9432 56.1746 50.4476 60.0881 47.9359C61.8441 49.0252 63.5725 50.1421 65.1921 51.3682C61.2699 53.8522 57.4796 56.4686 53.5921 58.989C54.1678 59.4588 54.8739 59.7977 55.5061 60.2107C59.5241 57.7441 63.442 55.1771 67.3961 52.648V44.3872H76.0961V60.8506C78.551 60.9859 81.2581 60.8695 83.8101 60.9088V68.646H67.3961V60.7924C62.5734 63.7317 57.6318 67.0549 52.7801 70.1585C47.7283 66.8688 42.8592 63.3928 37.8161 60.0943C36.3545 64.7396 32.8847 68.233 27.1441 68.646C23.5641 68.9034 19.4939 68.454 15.3701 68.646V44.3872C20.5263 44.7305 26.1886 43.6949 30.2761 44.969C33.891 46.0946 36.4531 48.9874 37.6421 52.5898C42.6896 49.4106 47.6544 46.1499 52.6641 42.9329ZM23.6641 52.1826V60.9088C25.7362 60.919 27.3123 61.0397 28.5361 60.0943C30.3559 58.688 30.7227 55.2033 29.1161 53.3461C28.0446 52.107 26.2335 51.8467 23.7221 52.0081C23.6554 52.0183 23.6598 52.0997 23.6641 52.1826ZM86.0721 44.3872H94.7721V60.9088H102.428V68.646H86.0141V44.5617C86.0098 44.4788 86.0054 44.3974 86.0721 44.3872Z" fill="#8A9CA7"/>
</g>
<defs>
<clipPath id="clip0_26_7983">
<rect width="116" height="116" fill="white"/>
</clipPath>
</defs>
</svg>
