<svg width="222" height="188" viewBox="0 0 222 188" fill="none" xmlns="http://www.w3.org/2000/svg" xmlns:xlink="http://www.w3.org/1999/xlink">
<path d="M114.581,7.231C116.558,7.231 118.161,5.612 118.161,3.615C118.161,1.619 116.558,0 114.581,0C112.603,0 111,1.619 111,3.615C111,5.612 112.603,7.231 114.581,7.231Z" fill="#001E48"/>
<path d="M60.435,32.978C61.134,33.684 62.051,34.037 62.967,34.037C63.884,34.037 64.801,33.684 65.5,32.978L68.032,30.421L70.564,32.978C71.263,33.684 72.18,34.037 73.096,34.037C74.013,34.037 74.93,33.684 75.629,32.978C77.026,31.567 77.026,29.276 75.629,27.864L73.096,25.308L75.629,22.751C77.026,21.339 77.026,19.049 75.629,17.637C74.231,16.226 71.962,16.226 70.564,17.637L68.032,20.194L65.5,17.637C64.102,16.226 61.833,16.226 60.435,17.637C59.037,19.049 59.037,21.339 60.435,22.751L62.967,25.308L60.435,27.864C59.037,29.276 59.037,31.567 60.435,32.978Z" fill="#001E48"/>
<path d="M19.694,112.077C24.629,112.077 28.645,108.022 28.645,103.038C28.645,98.055 24.629,94 19.694,94C14.758,94 10.742,98.055 10.742,103.038C10.742,108.022 14.758,112.077 19.694,112.077ZM19.694,101.231C20.682,101.231 21.484,102.041 21.484,103.038C21.484,104.036 20.682,104.846 19.694,104.846C18.706,104.846 17.903,104.036 17.903,103.038C17.903,102.041 18.706,101.231 19.694,101.231Z" fill="#001E48"/>
<path d="M218.42,75.923L196.935,75.923L196.935,54.231C196.935,52.235 195.331,50.615 193.355,50.615L150.387,50.615L150.387,47C150.387,41.019 145.569,36.154 139.645,36.154C133.721,36.154 128.903,41.019 128.903,47L128.903,50.615L28.645,50.615C26.669,50.615 25.065,52.235 25.065,54.231L25.065,75.923L3.581,75.923C1.604,75.923 0,77.543 0,79.538L0,159.077C0,161.073 1.604,162.692 3.581,162.692L35.806,162.692C37.783,162.692 39.387,161.073 39.387,159.077L39.387,141L96.677,141L96.677,148.231L85.935,148.231C83.959,148.231 82.355,149.85 82.355,151.846C82.355,153.842 83.959,155.462 85.935,155.462L136.065,155.462C138.041,155.462 139.645,153.842 139.645,151.846C139.645,149.85 138.041,148.231 136.065,148.231L125.323,148.231L125.323,141L182.613,141L182.613,159.077C182.613,161.073 184.217,162.692 186.194,162.692L218.42,162.692C220.396,162.692 222,161.073 222,159.077L222,79.538C222,77.543 220.396,75.923 218.42,75.923ZM214.838,121.752C211.882,118.058 207.366,115.692 202.306,115.692C197.248,115.692 192.73,118.058 189.774,121.752L189.774,83.154L214.838,83.154L214.838,121.752ZM211.258,131.962C211.258,136.945 207.242,141 202.306,141C197.371,141 193.355,136.945 193.355,131.962C193.355,126.978 197.371,122.923 202.306,122.923C207.242,122.923 211.258,126.978 211.258,131.962ZM136.065,47C136.065,45.007 137.672,43.385 139.645,43.385C141.619,43.385 143.226,45.007 143.226,47L143.226,50.615L136.065,50.615L136.065,47ZM32.226,83.154L32.226,121.752C29.27,118.058 24.752,115.692 19.694,115.692C14.635,115.692 10.117,118.058 7.161,121.752L7.161,83.154L32.226,83.154ZM28.645,131.962C28.645,136.945 24.629,141 19.694,141C14.758,141 10.742,136.945 10.742,131.962C10.742,126.978 14.758,122.923 19.694,122.923C24.629,122.923 28.645,126.978 28.645,131.962ZM7.161,155.462L7.161,142.171C10.117,145.865 14.635,148.231 19.694,148.231C24.752,148.231 29.27,145.865 32.226,142.171L32.226,155.462L7.161,155.462ZM118.161,148.231L103.839,148.231L103.839,141L118.161,141L118.161,148.231ZM39.387,133.769L39.387,79.538C39.387,77.543 37.783,75.923 35.806,75.923L32.226,75.923L32.226,57.846L143.226,57.846L143.226,73.988L134.079,80.146C133.083,80.817 132.484,81.945 132.484,83.154L132.484,122.923C132.484,124.919 134.088,126.538 136.065,126.538L157.548,126.538C159.525,126.538 161.129,124.919 161.129,122.923L161.129,83.154C161.129,81.945 160.53,80.817 159.533,80.146L150.387,73.988L150.387,57.846L189.774,57.846L189.774,75.923L186.194,75.923C184.217,75.923 182.613,77.543 182.613,79.538L182.613,133.769L39.387,133.769ZM146.806,80.267L153.968,85.089L153.968,119.308L139.645,119.308L139.645,85.089L146.806,80.267ZM189.774,155.462L189.774,142.171C192.73,145.865 197.248,148.231 202.306,148.231C207.366,148.231 211.882,145.865 214.838,142.171L214.838,155.462L189.774,155.462Z" fill="#001E48"/>
<path d="M202.306,112.077C207.242,112.077 211.258,108.022 211.258,103.038C211.258,98.055 207.242,94 202.306,94C197.371,94 193.354,98.055 193.354,103.038C193.354,108.022 197.371,112.077 202.306,112.077ZM202.306,101.231C203.294,101.231 204.096,102.041 204.096,103.038C204.096,104.036 203.294,104.846 202.306,104.846C201.318,104.846 200.516,104.036 200.516,103.038C200.516,102.041 201.318,101.231 202.306,101.231Z" fill="#001E48"/>
<path d="M128.854,162.099C128.568,160.355 127.073,159.077 125.322,159.077L60.871,159.077C59.121,159.077 57.625,160.355 57.339,162.099L53.758,183.792C53.586,184.839 53.879,185.912 54.557,186.722C55.239,187.532 56.236,188 57.29,188L128.903,188C129.954,188 130.954,187.532 131.636,186.722C132.318,185.912 132.61,184.839 132.435,183.792L128.854,162.099ZM63.904,166.308L103.839,166.308L103.839,169.923L68.032,169.923C66.056,169.923 64.451,171.543 64.451,173.538C64.451,175.534 66.056,177.154 68.032,177.154L103.839,177.154L103.839,180.769L61.518,180.769L63.904,166.308ZM111,180.769L111,177.154L118.161,177.154C120.138,177.154 121.742,175.534 121.742,173.538C121.742,171.543 120.138,169.923 118.161,169.923L111,169.923L111,166.308L122.289,166.308L124.675,180.769L111,180.769Z" fill="#001E48"/>
<path d="M159.339,166.308C152.43,166.308 146.807,171.985 146.807,178.962L146.807,180.769C146.807,182.765 148.411,184.385 150.387,184.385L168.29,184.385C170.267,184.385 171.871,182.765 171.871,180.769L171.871,178.962C171.871,171.985 166.248,166.308 159.339,166.308ZM154.274,177.154C155.013,175.048 157.004,173.538 159.339,173.538C161.673,173.538 163.664,175.048 164.403,177.154L154.274,177.154Z" fill="#001E48"/>
<path d="M146.806,94C148.784,94 150.387,92.381 150.387,90.385C150.387,88.388 148.784,86.769 146.806,86.769C144.829,86.769 143.226,88.388 143.226,90.385C143.226,92.381 144.829,94 146.806,94Z" fill="#001E48"/>
<path d="M150.387,28.923C156.311,28.923 161.129,24.058 161.129,18.077C161.129,12.096 156.311,7.231 150.387,7.231C144.464,7.231 139.646,12.096 139.646,18.077C139.646,24.058 144.464,28.923 150.387,28.923ZM150.387,14.462C152.361,14.462 153.968,16.084 153.968,18.077C153.968,20.07 152.361,21.692 150.387,21.692C148.414,21.692 146.807,20.07 146.807,18.077C146.807,16.084 148.414,14.462 150.387,14.462Z" fill="#001E48"/>
</svg>
