<svg width="243" height="116" viewBox="0 0 243 116" fill="none" xmlns="http://www.w3.org/2000/svg">
<g id="Capa_1" clip-path="url(#clip0_32_7988)">
<path id="Vector" d="M57.8672 116C89.8249 116 115.734 90.0302 115.734 57.9982C115.734 25.9662 89.8285 0 57.8672 0C25.906 0 0 25.9698 0 58.0018C0 90.0338 25.9095 116.004 57.8672 116.004V116Z" fill="#8A9CA7"/>
<path id="Vector_2" d="M71.9597 78.4121H59.9765V33.0164H55.5322V82.8915H59.9765V82.8632H71.9597V78.4121Z" fill="#F2F2F2"/>
<path id="Vector_3" d="M101.868 59.8572H72.0265V55.4026H106.238C106.284 56.2631 106.305 57.1271 106.305 57.9982C106.305 84.8143 84.6174 106.553 57.8635 106.553C31.1096 106.553 9.42529 84.8178 9.42529 58.0017C9.42529 31.1857 31.1131 9.44739 57.867 9.44739C58.5736 9.44739 59.2766 9.46155 59.9761 9.49342L59.969 13.9126C59.2695 13.8807 58.5665 13.863 57.867 13.863C33.5472 13.863 13.8307 33.6254 13.8307 57.9982C13.8307 82.371 33.5472 102.133 57.867 102.133C82.1868 102.133 100.822 83.4368 101.857 59.9812L101.868 59.8572Z" fill="#F2F2F2"/>
<path id="Vector_4" d="M39.797 46.4546C43.5559 46.4546 46.6047 43.3987 46.6047 39.631C46.6047 35.8634 43.5559 32.8075 39.797 32.8075C36.0381 32.8075 32.9893 35.8634 32.9893 39.631C32.9893 43.3987 36.0381 46.4546 39.797 46.4546Z" fill="#F2F2F2"/>
<path id="Vector_5" d="M144.47 86.4715H185.818V73.954H159.651V29.1319H144.47V86.4679V86.4715ZM235.775 33.1686C231.034 29.486 224.93 27.6199 217.649 27.6199C209 27.6199 201.772 30.2827 196.749 35.3145C191.502 40.5729 188.726 48.3206 188.726 57.722C188.726 67.7643 191.661 76.2344 196.992 81.5743C201.179 85.7668 206.75 87.98 213.13 87.98C227.134 87.98 230.356 79.5665 230.356 79.5665V86.4679H243.003V54.0854H217.829V64.2198H229.416C229.416 64.2198 229.529 76.978 217.571 76.978C214.533 76.978 211.827 75.8732 209.746 73.7876C206.503 70.5369 204.786 65.0625 204.786 57.9628C204.786 46.2066 209.449 39.1884 217.253 39.1884C222.128 39.1884 225.795 42.1876 226.735 46.7378H242.841C242.007 40.1303 240.198 36.6849 235.782 33.1722L235.775 33.1686Z" fill="#8A9CA7"/>
</g>
<defs>
<clipPath id="clip0_32_7988">
<rect width="243" height="116" fill="white"/>
</clipPath>
</defs>
</svg>
