<svg width="31" height="31" viewBox="0 0 31 31" fill="none" xmlns="http://www.w3.org/2000/svg">
<g id="icon / cart" clip-path="url(#clip0_11_98)">
<path id="Vector" d="M9.88648 27.4414C10.7946 27.4414 11.5308 26.7052 11.5308 25.7971C11.5308 24.8889 10.7946 24.1528 9.88648 24.1528C8.97836 24.1528 8.24219 24.8889 8.24219 25.7971C8.24219 26.7052 8.97836 27.4414 9.88648 27.4414Z" fill="white"/>
<path id="Vector_2" d="M22.1013 27.4414C23.0094 27.4414 23.7456 26.7052 23.7456 25.7971C23.7456 24.8889 23.0094 24.1528 22.1013 24.1528C21.1932 24.1528 20.457 24.8889 20.457 25.7971C20.457 26.7052 21.1932 27.4414 22.1013 27.4414Z" fill="white"/>
<path id="Vector (Stroke)" fill-rule="evenodd" clip-rule="evenodd" d="M0.725098 4.18633C0.725098 3.79713 1.0406 3.48163 1.4298 3.48163H3.40562C3.76294 3.48163 4.11054 3.59803 4.3958 3.8132C4.68107 4.02838 4.88848 4.33063 4.98665 4.6742L5.98819 8.17961H26.5304C26.7516 8.17961 26.9599 8.28341 27.093 8.45994C27.2262 8.63648 27.2688 8.86529 27.208 9.0779L24.1075 19.9297C23.9533 20.4696 23.6273 20.9446 23.179 21.2827C22.7308 21.6209 22.1845 21.8038 21.623 21.8038H10.364C9.80254 21.8038 9.25631 21.6209 8.80804 21.2827C8.35976 20.9446 8.03383 20.4696 7.87957 19.9297L4.78347 9.09337C4.78037 9.08338 4.77749 9.07329 4.77483 9.06312L3.63148 5.06139C3.61746 5.01231 3.58783 4.96913 3.54707 4.93839C3.50632 4.90765 3.45666 4.89102 3.40562 4.89102H1.4298C1.0406 4.89102 0.725098 4.57552 0.725098 4.18633ZM6.39088 9.58901L9.23474 19.5425C9.30486 19.7879 9.45301 20.0038 9.65677 20.1575C9.86053 20.3112 10.1088 20.3944 10.364 20.3944H21.623C21.8783 20.3944 22.1266 20.3112 22.3303 20.1575C22.5341 20.0038 22.6822 19.7879 22.7523 19.5425L25.5962 9.58901H6.39088Z" fill="white" stroke="white" stroke-width="0.939597" stroke-linecap="round" stroke-linejoin="round"/>
</g>
<defs>
<clipPath id="clip0_11_98">
<rect width="30.0671" height="30.0671" fill="white" transform="translate(0.490234 0.427979)"/>
</clipPath>
</defs>
</svg>
