<svg width="11" height="11" viewBox="0 0 11 11" fill="none" xmlns="http://www.w3.org/2000/svg">
<g id="ChevronRight">
<path id="Vector" fill-rule="evenodd" clip-rule="evenodd" d="M3.60893 1.75834C3.63781 1.72938 3.67212 1.70641 3.7099 1.69074C3.74767 1.67506 3.78817 1.66699 3.82907 1.66699C3.86997 1.66699 3.91046 1.67506 3.94824 1.69074C3.98601 1.70641 4.02033 1.72938 4.04921 1.75834L7.78041 5.48954C7.80937 5.51843 7.83234 5.55274 7.84801 5.59051C7.86369 5.62829 7.87176 5.66879 7.87176 5.70968C7.87176 5.75058 7.86369 5.79108 7.84801 5.82886C7.83234 5.86663 7.80937 5.90094 7.78041 5.92983L4.04921 9.66103C3.99082 9.71941 3.91164 9.75221 3.82907 9.75221C3.7465 9.75221 3.66731 9.71941 3.60893 9.66103C3.55054 9.60264 3.51774 9.52346 3.51774 9.44089C3.51774 9.35832 3.55054 9.27913 3.60893 9.22075L7.12061 5.70968L3.60893 2.19862C3.57997 2.16974 3.557 2.13543 3.54132 2.09765C3.52565 2.05988 3.51758 2.01938 3.51758 1.97848C3.51758 1.93758 3.52565 1.89709 3.54132 1.85931C3.557 1.82154 3.57997 1.78722 3.60893 1.75834Z" fill="black"/>
</g>
</svg>
