<svg width="68" height="68" viewBox="0 0 68 68" fill="none" xmlns="http://www.w3.org/2000/svg" xmlns:xlink="http://www.w3.org/1999/xlink">
<path d="M33.225,0C51.575,0 66.45,14.875 66.45,33.225C66.45,50.212 53.702,64.22 37.251,66.207L37.251,43.378L46.239,43.378L48.103,33.225L37.251,33.225L37.251,29.634C37.251,26.952 37.777,25.094 38.984,23.908C40.191,22.721 42.079,22.205 44.803,22.205C45.493,22.205 46.127,22.212 46.69,22.226C47.509,22.246 48.177,22.28 48.642,22.329L48.642,13.125C48.456,13.074 48.237,13.022 47.991,12.971C47.435,12.856 46.743,12.745 45.999,12.648C44.445,12.444 42.665,12.3 41.419,12.3C36.388,12.3 32.586,13.376 29.932,15.605C26.729,18.296 25.199,22.666 25.199,28.85L25.199,33.225L18.347,33.225L18.347,43.378L25.199,43.378L25.199,65.472C10.727,61.882 0,48.807 0,33.225C0,14.875 14.875,0 33.225,0Z" fill="#2F80ED"/>
</svg>
