<svg width="24" height="24" viewBox="0 0 24 24" fill="none" xmlns="http://www.w3.org/2000/svg">
<g id="Frame 7189">
<path id="Vector" d="M13.5375 9.01017C13.9168 7.79634 13.9595 6.56354 13.6655 5.31178C13.3715 4.06001 12.7693 2.96946 11.859 2.04012C11.1572 1.31941 10.3322 0.783617 9.38389 0.432744C8.43559 0.0818704 7.45883 -0.055634 6.45363 0.0202305C6.15017 0.0391967 5.90835 0.152993 5.72817 0.361621C5.54799 0.570248 5.45316 0.812066 5.44368 1.08707C5.4342 1.36208 5.53377 1.61338 5.7424 1.84098C6.08379 2.1634 6.68122 2.66126 7.53469 3.33456C8.38817 4.00786 8.97612 4.50572 9.29854 4.82814C9.62097 5.15057 9.77744 5.52515 9.76795 5.95189C9.75847 6.37862 9.602 6.74372 9.29854 7.04718L7.05106 9.29467C6.7476 9.59812 6.37776 9.75459 5.94154 9.76408C5.50532 9.77356 5.14496 9.62657 4.86047 9.32311L1.84486 5.76697C1.61726 5.55834 1.36596 5.45402 1.09095 5.45402C0.815945 5.45402 0.574127 5.54411 0.3655 5.72429C0.156872 5.90447 0.0430756 6.14629 0.0241095 6.44975C-0.0707211 7.58771 0.114199 8.68301 0.578869 9.73563C1.04354 10.7882 1.72632 11.6702 2.62721 12.3814C3.5281 13.0926 4.54753 13.5526 5.6855 13.7612C6.82346 13.9698 7.93298 13.9034 9.01405 13.562C9.18475 13.5051 9.3507 13.5004 9.51191 13.5478C9.67312 13.5952 9.80115 13.6853 9.89598 13.8181L16.7807 22.6658C17.3117 23.2348 17.9424 23.6236 18.6726 23.8322C19.4027 24.0408 20.1377 24.0503 20.8774 23.8606C21.617 23.671 22.2524 23.3059 22.7835 22.7654C23.3145 22.2248 23.6749 21.5895 23.8645 20.8593C24.0542 20.1291 24.0447 19.3941 23.8361 18.6544C23.6275 17.9148 23.2386 17.2889 22.6697 16.7768L13.822 9.8921C13.6892 9.79727 13.5991 9.66925 13.5517 9.50803C13.5043 9.34682 13.4995 9.18087 13.5375 9.01017ZM20.7067 20.7028C20.517 20.9114 20.2847 21.0394 20.0097 21.0869C19.7347 21.1343 19.4644 21.1058 19.1989 21.0015C18.9333 20.8972 18.7247 20.7312 18.573 20.5036C18.4212 20.2761 18.3454 20.02 18.3454 19.7355C18.3454 19.451 18.4212 19.1902 18.573 18.9532C18.7247 18.7161 18.9333 18.5454 19.1989 18.4411C19.4644 18.3368 19.7347 18.3131 20.0097 18.37C20.2847 18.4269 20.517 18.5501 20.7067 18.7398C20.9722 19.0053 21.105 19.3325 21.105 19.7213C21.105 20.1101 20.9722 20.4373 20.7067 20.7028Z" fill="#28353D"/>
<circle id="Ellipse 33" cx="19.59" cy="19.4435" r="1.81364" fill="#2F80ED"/>
</g>
</svg>
