<svg width="33" height="33" viewBox="0 0 33 33" fill="none" xmlns="http://www.w3.org/2000/svg">
<g id="Frame 7190">
<g id="Complete">
<g id="support">
<g id="Group">
<path id="Vector" d="M24.6057 8.3956C29.1356 12.9255 29.1356 20.2698 24.6057 24.7997C20.0758 29.3296 12.7314 29.3296 8.20157 24.7997C3.6717 20.2698 3.6717 12.9255 8.20157 8.3956C12.7314 3.86573 20.0758 3.86573 24.6057 8.3956Z" fill="#E1EDFF" stroke="#28353D" stroke-width="2.31989" stroke-linecap="round" stroke-linejoin="round"/>
<path id="Vector_2" d="M8.31836 24.7178L12.9581 20.078" stroke="#28353D" stroke-width="2.31989" stroke-linecap="round" stroke-linejoin="round"/>
<path id="Vector_3" d="M19.6843 13.3168C21.4962 15.1288 21.4962 18.0665 19.6843 19.8785C17.8723 21.6904 14.9346 21.6904 13.1226 19.8785C11.3107 18.0665 11.3107 15.1288 13.1226 13.3168C14.9346 11.5049 17.8723 11.5049 19.6843 13.3168Z" fill="#2F80ED" stroke="#28353D" stroke-width="2.31989" stroke-linecap="round" stroke-linejoin="round"/>
<path id="Vector_4" d="M19.918 20.078L24.5578 24.7178" stroke="#28353D" stroke-width="2.31989" stroke-linecap="round" stroke-linejoin="round"/>
<path id="Vector_5" d="M19.918 13.1182L24.5578 8.47838" stroke="#28353D" stroke-width="2.31989" stroke-linecap="round" stroke-linejoin="round"/>
<path id="Vector_6" d="M12.9581 13.1182L8.31836 8.47838" stroke="#28353D" stroke-width="2.31989" stroke-linecap="round" stroke-linejoin="round"/>
</g>
</g>
</g>
</g>
</svg>
