<svg width="25" height="20" viewBox="0 0 25 20" fill="none" xmlns="http://www.w3.org/2000/svg">
<g id="Frame 7191">
<path id="primary" d="M21.25 5H3.75C3.41848 5 3.10054 5.1317 2.86612 5.36612C2.6317 5.60054 2.5 5.91848 2.5 6.25V10C2.5 12.6522 3.55357 15.1957 5.42893 17.0711C7.3043 18.9464 9.84784 20 12.5 20C15.1522 20 17.6957 18.9464 19.5711 17.0711C21.4464 15.1957 22.5 12.6522 22.5 10V6.25C22.5 5.91848 22.3683 5.60054 22.1339 5.36612C21.8995 5.1317 21.5815 5 21.25 5Z" fill="#28353D"/>
<path id="secondary" d="M25 1.25V3.75C25 4.41304 24.7366 5.04893 24.2678 5.51777C23.7989 5.98661 23.163 6.25 22.5 6.25H2.5C1.83696 6.25 1.20107 5.98661 0.732233 5.51777C0.263392 5.04893 0 4.41304 0 3.75V1.25C0 0.91848 0.131696 0.600537 0.366116 0.366117C0.600537 0.131696 0.918479 0 1.25 0H23.75C24.0815 0 24.3995 0.131696 24.6339 0.366117C24.8683 0.600537 25 0.91848 25 1.25ZM12.5 11.875C12.1292 11.875 11.7666 11.985 11.4583 12.191C11.15 12.397 10.9096 12.6899 10.7677 13.0325C10.6258 13.3751 10.5887 13.7521 10.661 14.1158C10.7334 14.4795 10.912 14.8136 11.1742 15.0758C11.4364 15.338 11.7705 15.5166 12.1342 15.589C12.4979 15.6613 12.8749 15.6242 13.2175 15.4823C13.5601 15.3404 13.853 15.1 14.059 14.7917C14.265 14.4834 14.375 14.1208 14.375 13.75C14.375 13.2527 14.1775 12.7758 13.8258 12.4242C13.4742 12.0725 12.9973 11.875 12.5 11.875Z" fill="#2F80ED"/>
</g>
</svg>
