<svg width="32" height="31" viewBox="0 0 32 31" fill="none" xmlns="http://www.w3.org/2000/svg">
<g id="Frame 7194">
<path id="Vector" d="M3.99638 3.32939L3.99638 3.32938C4.85153 2.47423 6.01212 1.97799 7.95996 1.71611C9.94302 1.44949 12.551 1.44689 16.1926 1.44689C19.8341 1.44689 22.4421 1.44949 24.4252 1.71611C26.373 1.97799 27.5336 2.47423 28.3887 3.32937L28.3887 3.3294C29.2439 4.18455 29.7401 5.34513 30.002 7.29297C30.2687 9.27603 30.2713 11.884 30.2713 15.5256C30.2713 19.1671 30.2687 21.7751 30.002 23.7582C29.7401 25.706 29.2439 26.8666 28.3887 27.7217L28.3887 27.7217C27.5336 28.5769 26.373 29.0732 24.4252 29.335C22.4421 29.6017 19.8341 29.6043 16.1926 29.6043C12.551 29.6043 9.94302 29.6017 7.95996 29.335C6.01212 29.0732 4.85154 28.5769 3.99639 27.7217L3.99636 27.7217C3.14122 26.8666 2.64498 25.706 2.3831 23.7582C2.11648 21.7751 2.11388 19.1671 2.11388 15.5256C2.11388 11.884 2.11648 9.27603 2.3831 7.29297C2.64498 5.34512 3.14122 4.18454 3.99638 3.32939Z" stroke="#28353D" stroke-width="2.44847"/>
<path id="Vector_2" d="M20.0194 13.6128C19.3856 13.6128 18.8717 13.0989 18.8717 12.4651C18.8717 11.8312 19.3856 11.3174 20.0194 11.3174H23.8452C24.479 11.3174 24.9929 11.8312 24.9929 12.4651V16.2908C24.9929 16.9247 24.479 17.4386 23.8452 17.4386C23.2113 17.4386 22.6974 16.9247 22.6974 16.2908V15.236L19.6176 18.3157C18.5718 19.3615 16.8762 19.3615 15.8304 18.3157L13.4037 15.889C13.2542 15.7396 13.012 15.7396 12.8626 15.889L9.35381 19.3978C8.9056 19.846 8.17889 19.846 7.73069 19.3978C7.28248 18.9496 7.28248 18.223 7.73069 17.7748L11.2395 14.2659C12.2853 13.2201 13.9809 13.2201 15.0267 14.2659L17.4534 16.6927C17.603 16.842 17.845 16.842 17.9946 16.6927L21.0743 13.6128H20.0194Z" fill="#2F80ED"/>
</g>
</svg>
