<svg width="34" height="30" viewBox="0 0 34 30" fill="none" xmlns="http://www.w3.org/2000/svg">
<g id="Frame 7193">
<path id="Vector" d="M17.4695 0.447266C13.2297 0.447266 8.99801 2.09329 5.77576 5.37712C-0.668742 11.9448 -0.668742 22.644 5.77576 29.2116C6.58334 30.0346 7.89162 30.0346 8.6992 29.2116C9.50678 28.3886 9.50678 27.0553 8.6992 26.2323C3.83756 21.2778 3.83756 13.311 8.6992 8.35643C13.5608 3.40189 21.3782 3.40189 26.2399 8.35643C30.3182 12.5127 30.9723 18.7923 28.2104 23.6233C27.6774 24.5616 27.0232 25.434 26.2399 26.2323C25.4323 27.0553 25.4323 28.3886 26.2399 29.2116C27.0474 30.0346 28.3557 30.0346 29.1633 29.2116C35.6078 22.644 35.6078 11.9448 29.1633 5.37712C25.9411 2.09329 21.7093 0.447266 17.4695 0.447266ZM28.2104 23.6233L27.4593 20.751L21.6044 17.3026C21.6044 15.7965 20.8129 14.4138 19.5369 13.6566C17.5584 12.4962 15.0306 13.1875 13.8919 15.1957C12.7452 17.2121 13.4236 19.7963 15.4021 20.9568C16.6781 21.7057 18.2529 21.6975 19.5289 20.9485L25.3919 24.397L28.2104 23.6233Z" fill="#2E3434"/>
<ellipse id="Ellipse 34" cx="17.519" cy="17.341" rx="5.04536" ry="5.14178" fill="#2F80ED"/>
</g>
</svg>
