<svg width="42" height="42" viewBox="0 0 42 42" fill="none" xmlns="http://www.w3.org/2000/svg">
<g id="Icon">
<path id="Line" fill-rule="evenodd" clip-rule="evenodd" d="M20.9989 8.75C16.9178 8.75 12.934 9.94693 9.93403 12.1692C7.79554 13.7532 5.89679 15.9398 4.67578 18.0622C3.62761 19.8841 3.62761 22.1159 4.67578 23.9378C5.89679 26.0602 7.79554 28.2468 9.93403 29.8308C12.934 32.0531 16.9178 33.25 20.9989 33.25C25.08 33.25 29.0638 32.0531 32.0638 29.8308C34.2023 28.2468 36.1011 26.0602 37.3221 23.9378C38.3702 22.1159 38.3702 19.8841 37.3221 18.0622C36.1011 15.9398 34.2023 13.7532 32.0638 12.1692C29.0638 9.94693 25.08 8.75 20.9989 8.75ZM12.0173 14.9816C14.334 13.2656 17.5611 12.25 20.9989 12.25C24.4367 12.25 27.6638 13.2656 29.9805 14.9816C31.7218 16.2714 33.3008 18.0911 34.2883 19.8075C34.7148 20.5489 34.7148 21.4511 34.2883 22.1925C33.3008 23.9089 31.7218 25.7286 29.9805 27.0184C27.6638 28.7344 24.4367 29.75 20.9989 29.75C17.5611 29.75 14.334 28.7344 12.0173 27.0184C10.2761 25.7286 8.69703 23.9089 7.70954 22.1925C7.28302 21.4511 7.28302 20.5489 7.70954 19.8075C8.69703 18.0911 10.2761 16.2714 12.0173 14.9816ZM28 21C28 24.866 24.866 28 21 28C17.134 28 14 24.866 14 21C14 17.134 17.134 14 21 14C21.7174 14 22.4096 14.1079 23.0613 14.3084C21.8459 14.8572 21 16.0798 21 17.5C21 19.433 22.567 21 24.5 21C25.9202 21 27.1428 20.1541 27.6916 18.9387C27.8921 19.5904 28 20.2826 28 21Z" fill="white"/>
</g>
</svg>
