<svg width="23" height="24" viewBox="0 0 23 24" fill="none" xmlns="http://www.w3.org/2000/svg">
<path fill-rule="evenodd" clip-rule="evenodd" d="M16.9775 10.3864C16.9775 11.3307 16.7915 12.2658 16.4301 13.1382C16.0688 14.0106 15.5391 14.8033 14.8715 15.4711C14.2037 16.1387 13.411 16.6684 12.5386 17.0298C11.6662 17.3911 10.7311 17.5771 9.78684 17.5771C8.84254 17.5771 7.9075 17.3911 7.03508 17.0298C6.16267 16.6684 5.36997 16.1387 4.70226 15.4711C4.03453 14.8033 3.50488 14.0106 3.14351 13.1382C2.78214 12.2658 2.59615 11.3307 2.59615 10.3864C2.59615 8.47935 3.35373 6.65038 4.70226 5.30187C6.05077 3.95334 7.87974 3.19576 9.78684 3.19576C11.6939 3.19576 13.5229 3.95334 14.8715 5.30187C16.22 6.65038 16.9775 8.47935 16.9775 10.3864ZM15.6672 17.9606C13.7407 19.4563 11.3167 20.1615 8.88848 19.9326C6.46032 19.704 4.21061 18.5584 2.59735 16.7293C0.984082 14.9001 0.12855 12.5249 0.204899 10.0872C0.281264 7.64951 1.28377 5.33252 3.00834 3.60795C4.73292 1.88338 7.04991 0.880874 9.48763 0.804509C11.9254 0.728155 14.3005 1.58369 16.1297 3.19696C17.9588 4.81022 19.1044 7.05993 19.3331 9.48809C19.5619 11.9162 18.8567 14.3403 17.361 16.2668L22.2188 21.1245C22.3365 21.2343 22.431 21.3666 22.4965 21.5136C22.562 21.6606 22.5971 21.8193 22.6 21.9802C22.6029 22.1411 22.5732 22.3009 22.5129 22.4502C22.4527 22.5994 22.3629 22.7349 22.2491 22.8487C22.1353 22.9626 21.9998 23.0523 21.8506 23.1125C21.7013 23.1728 21.5416 23.2025 21.3806 23.1996C21.2197 23.1967 21.0609 23.1616 20.914 23.0961C20.767 23.0306 20.6347 22.9361 20.525 22.8183L15.6672 17.9606Z" fill="#8A9CA7"/>
</svg>
