<svg width="91" height="72" viewBox="0 0 91 72" fill="none" xmlns="http://www.w3.org/2000/svg">
<g id="Layer_1" clip-path="url(#clip0_11_440)">
<path id="Vector" d="M1.42529 58.4649C0.638138 58.4649 0 57.8335 0 57.0546V35.9994C0 35.2352 0.651787 34.5891 1.42529 34.5891H7.59963V17.9519C7.59963 15.5161 9.60278 13.534 12.0643 13.534H54.7957C55.6601 5.9532 63.4304 0 72.8569 0C82.8612 0 91 6.70396 91 14.9455C91 19.9498 87.9981 24.3868 83.4004 27.1006V50.0996C83.4004 50.8785 82.7622 51.5099 81.9751 51.5099C81.1879 51.5099 80.5498 50.8785 80.5498 50.0996V28.4783C78.2122 29.3833 75.6051 29.8909 72.8557 29.8909C72.0254 29.8909 71.1904 29.8436 70.3657 29.7502L61.4932 35.6651C60.9438 36.031 60.1919 35.9679 59.7131 35.5154C59.307 35.1316 59.1659 34.5328 59.3593 34.0105L61.9869 26.9183C59.9644 25.6745 58.3105 24.1212 57.0934 22.3653C57.0604 22.3675 57.0274 22.3709 56.9933 22.3709H10.4479V34.5902H31.8204C32.5962 34.5902 33.2457 35.234 33.2457 36.0006V57.0557C33.2457 57.8346 32.6076 58.466 31.8204 58.466H10.4479V61.6615H80.5509V57.4316C80.5509 56.6527 81.1891 56.0213 81.9762 56.0213C82.7634 56.0213 83.4015 56.6527 83.4015 57.4316V61.6615H89.5747C90.3619 61.6615 91 62.293 91 63.0719V64.5757C91 68.6705 87.633 72.0011 83.4959 72.0011H23.9375C23.1504 72.0011 22.5123 71.3697 22.5123 70.5908C22.5123 69.8119 23.1504 69.1804 23.9375 69.1804H83.4959C86.0621 69.1804 88.1506 67.1139 88.1506 64.5746V64.4811H2.84943V64.5746C2.84943 67.1139 4.93674 69.1804 7.50408 69.1804H16.7178C17.505 69.1804 18.1431 69.8119 18.1431 70.5908C18.1431 71.3697 17.505 72.0011 16.7178 72.0011H7.50408C3.36586 72.0011 0 68.6694 0 64.5757V63.0719C0 62.293 0.638138 61.6615 1.42529 61.6615H7.59963V58.466H1.42529V58.4649ZM64.4087 25.0464C65.0354 25.3773 65.3209 26.1157 65.0764 26.7753L63.551 30.8949L69.2203 27.1152C69.7572 26.7584 70.3475 26.916 70.9436 26.9757C71.5795 27.0387 72.2187 27.0713 72.858 27.0713C81.2903 27.0713 88.1517 21.6325 88.1517 14.9455C88.1517 8.25838 81.2903 2.81958 72.8569 2.81958C64.4234 2.81958 57.5632 8.25951 57.5632 14.9455C57.5632 19.0077 60.1226 22.784 64.4075 25.0464H64.4087ZM55.5885 19.5513C55.187 18.5226 54.9185 17.4521 54.7945 16.3558H12.0632C11.1725 16.3558 10.4479 17.0728 10.4479 17.9541V19.5525H55.5885V19.5513ZM4.86509 37.4098L16.6234 49.0449L28.3818 37.4098H4.86509ZM30.3963 55.6442V39.4032L17.6301 52.0356C17.0807 52.5792 16.1639 52.5792 15.6145 52.0356L2.8483 39.4032V55.6442H30.3951H30.3963Z" fill="#001E48"/>
</g>
<defs>
<clipPath id="clip0_11_440">
<rect width="91" height="72" fill="white" transform="matrix(-1 0 0 1 91 0)"/>
</clipPath>
</defs>
</svg>
