<svg width="221" height="58" viewBox="0 0 221 58" fill="none" xmlns="http://www.w3.org/2000/svg">
<path d="M16.2391 33.1104V30.5731C16.2391 29.0831 17.4409 27.8754 18.9236 27.8754H20.7755C22.2582 27.8754 23.46 29.0831 23.46 30.5731V33.1104H39.6107V17.5976C39.6107 7.87895 31.7701 0 22.0986 0H17.5121C7.84066 0 0 7.87895 0 17.5976V33.1104H16.2391Z" fill="#28353D"/>
<path d="M23.4603 36.0029V39.7241C23.4603 41.0908 22.449 42.219 21.1377 42.3966V58.0001H22.0996C31.771 58.0001 39.6117 50.1212 39.6117 40.4025V36.0029H23.461H23.4603Z" fill="#28353D"/>
<path d="M18.5616 42.3966C17.2504 42.219 16.2391 41.0902 16.2391 39.7241V36.0029H0V40.4025C0 50.1212 7.84066 58.0001 17.5121 58.0001H18.5623V42.3966H18.5616Z" fill="#28353D"/>
<path d="M20.2794 29.9517H19.3828C18.9087 29.9517 18.5244 30.3378 18.5244 30.8142V39.6478C18.5244 40.1242 18.9087 40.5104 19.3828 40.5104H20.2794C20.7534 40.5104 21.1377 40.1242 21.1377 39.6478V30.8142C21.1377 30.3378 20.7534 29.9517 20.2794 29.9517Z" fill="#28353D"/>
<path d="M45.0771 33.2589C44.0203 32.1075 43.4922 30.483 43.4922 28.3849V13.956C43.4922 11.8586 44.0203 10.2335 45.0771 9.08208C46.1332 7.93068 47.6673 7.35498 49.6787 7.35498C51.6902 7.35498 53.2236 7.93068 54.2804 9.08208C55.3366 10.2335 55.8653 11.8586 55.8653 13.956V16.7954H51.8939V13.687C51.8939 12.0242 51.1931 11.1928 49.7935 11.1928C48.3938 11.1928 47.693 12.0242 47.693 13.687V28.6917C47.693 30.3293 48.3932 31.1475 49.7935 31.1475C51.1937 31.1475 51.8939 30.3293 51.8939 28.6917V24.5856H55.8653V28.3849C55.8653 30.483 55.3366 32.1075 54.2804 33.2589C53.2236 34.4103 51.6895 34.986 49.6787 34.986C47.668 34.986 46.1332 34.4103 45.0771 33.2589Z" fill="#28353D"/>
<path d="M59.3786 33.2203C58.2835 32.0437 57.7363 30.3802 57.7363 28.2317V14.1095C57.7363 11.9604 58.2835 10.2976 59.3786 9.12099C60.4729 7.94442 62.0519 7.35547 64.1141 7.35547C66.1763 7.35547 67.7545 7.94442 68.8496 9.12099C69.944 10.2982 70.4918 11.9611 70.4918 14.1095V28.2317C70.4918 30.3808 69.944 32.0443 68.8496 33.2203C67.7545 34.3975 66.1763 34.9858 64.1141 34.9858C62.0519 34.9858 60.4729 34.3975 59.3786 33.2203ZM66.291 28.5V13.8405C66.291 12.075 65.5651 11.1926 64.1141 11.1926C62.663 11.1926 61.9372 12.075 61.9372 13.8405V28.5C61.9372 30.2656 62.663 31.148 64.1141 31.148C65.5651 31.148 66.291 30.2656 66.291 28.5Z" fill="#28353D"/>
<path d="M72.897 7.73926H78.8923L81.5657 26.9653H81.6421L84.3155 7.73926H90.3108V34.6017H86.3394V14.2628H86.2629L83.2079 34.6011H79.6947L76.6396 14.2628H76.5632V34.6011H72.897V7.73926Z" fill="#28353D"/>
<path d="M93.0225 7.73926H99.209C101.296 7.73926 102.862 8.30237 103.906 9.42794C104.95 10.5542 105.472 12.2044 105.472 14.378V17.026C105.472 19.2009 104.95 20.8512 103.906 21.9761C102.862 23.1023 101.296 23.6648 99.209 23.6648H97.2233V34.6017H93.0225V7.73926ZM99.209 19.8276C99.8966 19.8276 100.412 19.6355 100.756 19.2519C101.099 18.8684 101.271 18.2158 101.271 17.295V14.1097C101.271 13.1889 101.099 12.5363 100.756 12.1527C100.412 11.7692 99.8966 11.577 99.209 11.577H97.2233V19.8276H99.209Z" fill="#28353D"/>
<path d="M108.793 33.2397C107.724 32.0757 107.189 30.4062 107.189 28.2319V7.73926H111.39V28.5387C111.39 29.4595 111.574 30.1253 111.944 30.5341C112.312 30.9435 112.841 31.1482 113.528 31.1482C114.216 31.1482 114.744 30.9435 115.113 30.5341C115.482 30.1253 115.667 29.4595 115.667 28.5387V7.73926H119.715V28.2313C119.715 30.4062 119.18 32.075 118.111 33.239C117.042 34.4037 115.488 34.9853 113.452 34.9853C111.416 34.9853 109.862 34.4037 108.793 33.239V33.2397Z" fill="#28353D"/>
<path d="M125.558 11.577H121.167V7.73926H134.151V11.577H129.759V34.6017H125.559V11.577H125.558Z" fill="#28353D"/>
<path d="M137.244 7.73926H142.934L147.288 34.6017H143.087L142.324 29.2674V29.3443H137.55L136.787 34.6017H132.892L137.245 7.73926H137.244ZM141.827 25.6986L139.956 12.421H139.879L138.046 25.6986H141.827H141.827Z" fill="#28353D"/>
<path d="M148.891 7.73926H155.307C157.394 7.73926 158.96 8.30237 160.004 9.42794C161.048 10.5542 161.57 12.2044 161.57 14.378V27.963C161.57 30.1379 161.048 31.7882 160.004 32.9131C158.96 34.0393 157.394 34.6017 155.307 34.6017H148.891V7.73926ZM155.23 30.764C155.918 30.764 156.446 30.5593 156.815 30.1498C157.184 29.7411 157.369 29.0753 157.369 28.1544V14.1859C157.369 13.2651 157.184 12.5999 156.815 12.1905C156.446 11.7817 155.918 11.5764 155.23 11.5764H153.091V30.764H155.23Z" fill="#28353D"/>
<path d="M165.312 33.2203C164.217 32.0437 163.669 30.3802 163.669 28.2317V14.1095C163.669 11.9604 164.217 10.2976 165.312 9.12099C166.406 7.94442 167.985 7.35547 170.047 7.35547C172.109 7.35547 173.688 7.94442 174.783 9.12099C175.877 10.2982 176.425 11.9611 176.425 14.1095V28.2317C176.425 30.3808 175.877 32.0443 174.783 33.2203C173.688 34.3975 172.109 34.9858 170.047 34.9858C167.985 34.9858 166.406 34.3975 165.312 33.2203ZM172.223 28.5V13.8405C172.223 12.075 171.498 11.1926 170.047 11.1926C168.595 11.1926 167.87 12.075 167.87 13.8405V28.5C167.87 30.2656 168.595 31.148 170.047 31.148C171.498 31.148 172.223 30.2656 172.223 28.5Z" fill="#28353D"/>
<path d="M178.83 7.73926H185.054C187.218 7.73926 188.797 8.24473 189.79 9.25503C190.783 10.266 191.279 11.8202 191.279 13.9176V15.5679C191.279 18.3569 190.363 20.1218 188.529 20.8638V20.9406C189.547 21.2474 190.267 21.8747 190.687 22.8208C191.107 23.7674 191.317 25.0341 191.317 26.6201V31.3403C191.317 32.1081 191.342 32.7282 191.394 33.2013C191.445 33.6749 191.572 34.1413 191.776 34.6017H187.498C187.345 34.1672 187.244 33.7577 187.193 33.3735C187.142 32.9899 187.117 32.2989 187.117 31.3012V26.3896C187.117 25.1613 186.919 24.3047 186.525 23.8185C186.13 23.3329 185.449 23.0891 184.481 23.0891H183.03V34.6017H178.83V7.73926ZM184.558 19.2519C185.398 19.2519 186.028 19.0346 186.448 18.5994C186.868 18.1648 187.078 17.4354 187.078 16.4119V14.3396C187.078 13.3677 186.906 12.6642 186.563 12.2289C186.219 11.7943 185.678 11.5764 184.94 11.5764H183.03V19.2513H184.558V19.2519Z" fill="#28353D"/>
<path d="M197.046 7.73926H202.736L207.09 34.6017H202.889L202.125 29.2674V29.3443H197.352L196.588 34.6017H192.693L197.047 7.73926H197.046ZM201.628 25.6986L199.757 12.421H199.681L197.848 25.6986H201.629H201.628Z" fill="#28353D"/>
<path d="M209.418 33.2395C208.374 32.0755 207.853 30.406 207.853 28.2317V26.6968H211.824V28.5385C211.824 30.2788 212.55 31.148 214.001 31.148C214.714 31.148 215.255 30.9367 215.624 30.5147C215.992 30.0927 216.178 29.4083 216.178 28.4616C216.178 27.3361 215.923 26.345 215.414 25.4877C214.905 24.6311 213.963 23.6016 212.588 22.3985C210.856 20.8636 209.648 19.4763 208.96 18.2348C208.272 16.994 207.929 15.5935 207.929 14.0327C207.929 11.9094 208.464 10.2658 209.533 9.10178C210.602 7.93779 212.155 7.35547 214.192 7.35547C216.229 7.35547 217.724 7.93779 218.755 9.10178C219.787 10.2664 220.302 11.9352 220.302 14.1095V15.2225H216.331V13.8412C216.331 12.9204 216.152 12.2486 215.796 11.8266C215.439 11.4046 214.918 11.1933 214.23 11.1933C212.83 11.1933 212.13 12.0505 212.13 13.7644C212.13 14.7369 212.391 15.6445 212.913 16.4892C213.435 17.3332 214.383 18.3567 215.758 19.5591C217.515 21.0941 218.723 22.4886 219.386 23.7421C220.048 24.9961 220.379 26.4669 220.379 28.1549C220.379 30.3557 219.837 32.0437 218.755 33.2203C217.673 34.3975 216.101 34.9858 214.039 34.9858C211.977 34.9858 210.462 34.4041 209.418 33.2395Z" fill="#28353D"/>
<path d="M44.0879 37.8438H45.146L48.0989 45.993L51.0517 37.8438H52.0433L48.5617 47.3882V53.3453H47.5477V47.3882L44.0879 37.8438Z" fill="#28353D"/>
<path d="M63.4368 41.587V41.9189H62.467V41.5201C62.467 39.8811 61.8499 38.6409 60.1754 38.6409C58.5008 38.6409 57.8838 39.8585 57.8838 41.4975C57.8838 45.2624 63.4592 45.3287 63.4592 49.6024C63.4592 51.8389 62.4894 53.4779 60.1312 53.4779C57.773 53.4779 56.8032 51.8389 56.8032 49.6024V48.8054H57.773V49.6693C57.773 51.3302 58.4118 52.5259 60.1088 52.5259C61.8057 52.5259 62.4446 51.3302 62.4446 49.6693C62.4446 45.9488 56.8691 45.8825 56.8691 41.5644C56.8691 39.2391 57.8831 37.7333 60.153 37.7114C62.4887 37.7114 63.4368 39.3504 63.4368 41.587Z" fill="#28353D"/>
<path d="M66.1028 53.3453H65.0889V37.8438H66.1028V53.3453Z" fill="#28353D"/>
<path d="M74.3669 41.587V41.9189H73.3972V41.5201C73.3972 39.8811 72.7801 38.6409 71.1055 38.6409C69.431 38.6409 68.8139 39.8585 68.8139 41.4975C68.8139 45.2624 74.3894 45.3287 74.3894 49.6024C74.3894 51.8389 73.4196 53.4779 71.0614 53.4779C68.7032 53.4779 67.7334 51.8389 67.7334 49.6024V48.8054H68.7032V49.6693C68.7032 51.3302 69.342 52.5259 71.039 52.5259C72.7359 52.5259 73.3747 51.3302 73.3747 49.6693C73.3747 45.9488 67.7993 45.8825 67.7993 41.5644C67.7993 39.2391 68.8133 37.7333 71.0831 37.7114C73.4189 37.7114 74.3669 39.3504 74.3669 41.587Z" fill="#28353D"/>
<path d="M78.6198 38.7739H75.4902V37.8438H82.7844V38.7739H79.6331V53.3453H78.6191V38.7739H78.6198Z" fill="#28353D"/>
<path d="M89.2634 45.9491H85.054V52.4156H90.1224V53.3457H84.04V37.8442H90.1224V38.7744H85.054V45.0196H89.2634V45.9498V45.9491Z" fill="#28353D"/>
<path d="M95.9406 53.3234L92.6793 39.6152V53.3453H91.7754V37.8438H93.2297L96.4694 51.5519L99.6866 37.8438H101.141V53.3453H100.171V39.5709L96.9539 53.3227H95.94L95.9406 53.3234Z" fill="#28353D"/>
<path d="M103.61 53.3453H102.684L106.056 37.8213H107.532L110.97 53.3453H109.956L109.185 49.913H104.381L103.61 53.3453ZM109.031 49.0272L106.761 38.9952L104.535 49.0272H109.031Z" fill="#28353D"/>
<path d="M119.014 41.587V41.9189H118.044V41.5201C118.044 39.8811 117.427 38.6409 115.753 38.6409C114.078 38.6409 113.461 39.8585 113.461 41.4975C113.461 45.2624 119.036 45.3287 119.036 49.6024C119.036 51.8389 118.067 53.4779 115.708 53.4779C113.35 53.4779 112.38 51.8389 112.38 49.6024V48.8054H113.35V49.6693C113.35 51.3302 113.989 52.5259 115.686 52.5259C117.383 52.5259 118.022 51.3302 118.022 49.6693C118.022 45.9488 112.446 45.8825 112.446 41.5644C112.446 39.2391 113.46 37.7333 115.73 37.7114C118.066 37.7114 119.014 39.3504 119.014 41.587Z" fill="#28353D"/>
<path d="M130.892 41.6974V49.4922C130.892 51.7732 129.856 53.3453 127.476 53.3453H124.082V37.8438H127.476C129.856 37.8438 130.892 39.4158 130.892 41.6968V41.6974ZM129.878 49.5366V41.653C129.878 39.9478 129.15 38.7739 127.454 38.7739H125.095V52.4151H127.454C129.172 52.4151 129.878 51.2412 129.878 49.536V49.5366Z" fill="#28353D"/>
<path d="M137.789 45.9491H133.579V52.4156H138.648V53.3457H132.565V37.8442H138.648V38.7744H133.579V45.0196H137.789V45.9498V45.9491Z" fill="#28353D"/>
<path d="M150.306 41.6306V42.782H149.337V41.5636C149.337 39.9028 148.698 38.6408 147.001 38.6408C145.304 38.6408 144.665 39.9028 144.665 41.5636V49.6248C144.665 51.2856 145.304 52.5258 147.001 52.5258C148.698 52.5258 149.337 51.2856 149.337 49.6248V46.2805H147.287V45.3504H150.306V49.5579C150.306 51.7944 149.337 53.4778 146.978 53.4778C144.62 53.4778 143.65 51.7944 143.65 49.5579V41.6299C143.65 39.3933 144.62 37.71 146.978 37.71C149.337 37.71 150.306 39.3927 150.306 41.6299V41.6306Z" fill="#28353D"/>
<path d="M155.286 52.5483C156.983 52.5483 157.601 51.2637 157.601 49.6029V37.8438H158.548V49.5585C158.548 51.7732 157.622 53.4784 155.264 53.4784C152.906 53.4784 151.958 51.7732 151.958 49.5585V37.8438H152.972V49.6029C152.972 51.2637 153.59 52.5483 155.286 52.5483Z" fill="#28353D"/>
<path d="M160.994 53.3453H160.068L163.44 37.8213H164.917L168.355 53.3453H167.341L166.569 49.913H161.765L160.994 53.3453ZM166.415 49.0272L164.145 38.9952L161.92 49.0272H166.415Z" fill="#28353D"/>
<path d="M171.659 38.7739H168.53V37.8438H175.824V38.7739H172.673V53.3453H171.659V38.7739H171.659Z" fill="#28353D"/>
<path d="M182.304 45.9491H178.095V52.4156H183.163V53.3457H177.081V37.8442H183.163V38.7744H178.095V45.0196H182.304V45.9498V45.9491Z" fill="#28353D"/>
<path d="M188.981 53.3234L185.72 39.6152V53.3453H184.816V37.8438H186.27L189.51 51.5519L192.727 37.8438H194.181V53.3453H193.212V39.5709L189.994 53.3227H188.98L188.981 53.3234Z" fill="#28353D"/>
<path d="M196.649 53.3453H195.724L199.095 37.8213H200.572L204.01 53.3453H202.996L202.225 49.913H197.421L196.649 53.3453ZM202.07 49.0272L199.801 38.9952L197.575 49.0272H202.07Z" fill="#28353D"/>
<path d="M205.552 37.8438H206.566V52.4151H211.414V53.3453H205.552V37.8438Z" fill="#28353D"/>
<path d="M213.639 53.3453H212.714L216.085 37.8213H217.562L221 53.3453H219.986L219.215 49.913H214.411L213.639 53.3453ZM219.061 49.0272L216.791 38.9952L214.566 49.0272H219.061Z" fill="#28353D"/>
</svg>
