<svg width="115" height="62" viewBox="0 0 115 62" fill="none" xmlns="http://www.w3.org/2000/svg">
<g id="Logotype" filter="url(#filter0_dd_105_2258)">
<rect x="12" y="7" width="90.9056" height="37.3661" rx="6.91589" fill="white"/>
<rect x="11.8559" y="6.85592" width="91.1938" height="37.6543" rx="7.05997" stroke="#D6DCE5" stroke-width="0.288162"/>
<g id="Maestro">
<path d="M91.4419 27.8153C91.4834 27.8151 91.5245 27.8234 91.5627 27.8395C91.5995 27.8552 91.633 27.8777 91.6614 27.9059C91.6895 27.9336 91.7121 27.9664 91.7278 28.0026C91.744 28.0401 91.7523 28.0805 91.7523 28.1214C91.7523 28.1622 91.744 28.2026 91.7278 28.2402C91.712 28.2763 91.6895 28.3091 91.6614 28.3368C91.6329 28.3649 91.5994 28.3874 91.5627 28.4033C91.5245 28.4195 91.4834 28.4277 91.4419 28.4274C91.3805 28.4282 91.3202 28.4108 91.2687 28.3775C91.2171 28.3442 91.1765 28.2964 91.1519 28.2402C91.1359 28.2026 91.1276 28.1622 91.1276 28.1214C91.1276 28.0805 91.1359 28.0401 91.1519 28.0026C91.1834 27.9286 91.2427 27.8701 91.3171 27.8395C91.3566 27.823 91.3991 27.8148 91.4419 27.8153ZM91.4419 28.359C91.4737 28.3595 91.5052 28.3533 91.5345 28.3408C91.5622 28.3288 91.5875 28.3118 91.609 28.2905C91.6538 28.2456 91.6789 28.1848 91.6789 28.1214C91.6789 28.058 91.6538 27.9971 91.609 27.9522C91.5876 27.9309 91.5623 27.9138 91.5345 27.9019C91.5052 27.8896 91.4737 27.8834 91.4419 27.8838C91.4094 27.8833 91.3772 27.8895 91.3473 27.9019C91.3113 27.9172 91.2797 27.9411 91.2551 27.9714C91.2306 28.0018 91.2138 28.0377 91.2062 28.076C91.1987 28.1143 91.2006 28.1538 91.2119 28.1912C91.2231 28.2286 91.2433 28.2627 91.2707 28.2905C91.2928 28.312 91.3187 28.3291 91.3473 28.3408C91.3772 28.3533 91.4094 28.3594 91.4419 28.359ZM91.46 27.9764C91.4902 27.9743 91.5201 27.9828 91.5446 28.0006C91.5545 28.0085 91.5624 28.0186 91.5676 28.0302C91.5729 28.0417 91.5753 28.0543 91.5748 28.067C91.5751 28.0779 91.5732 28.0887 91.569 28.0988C91.5648 28.1089 91.5586 28.1179 91.5506 28.1254C91.5322 28.1418 91.5088 28.1517 91.4842 28.1536L91.5768 28.2603H91.5043L91.4177 28.1536H91.3895V28.2603H91.3291V27.9764H91.46ZM91.3895 28.0287V28.1053H91.46C91.4725 28.1089 91.4858 28.1089 91.4983 28.1053C91.5028 28.1022 91.5065 28.0979 91.509 28.093C91.5115 28.0881 91.5126 28.0826 91.5124 28.0771C91.5126 28.0716 91.5115 28.0661 91.509 28.0611C91.5065 28.0562 91.5028 28.052 91.4983 28.0489C91.4858 28.0452 91.4725 28.0452 91.46 28.0489L91.3895 28.0287ZM59.6684 28.2583V25.238C59.6684 24.0983 58.9415 23.3312 57.7716 23.3211C57.4384 23.2996 57.1056 23.3678 56.8077 23.5186C56.5099 23.6695 56.258 23.8975 56.0782 24.1789C55.9144 23.9059 55.6801 23.6821 55.3997 23.5311C55.1194 23.3802 54.8036 23.3076 54.4855 23.3211C54.2085 23.3077 53.9329 23.3668 53.6857 23.4925C53.4385 23.6182 53.2284 23.8062 53.0761 24.0379V23.4339H52.027V28.2543H53.0861V25.5883C53.0861 24.7507 53.5492 24.3077 54.2661 24.3077C54.9829 24.3077 55.3151 24.7608 55.3151 25.5783V28.2603H56.3762V25.5883C56.3762 24.7507 56.8595 24.3077 57.5562 24.3077C58.2528 24.3077 58.6153 24.7608 58.6153 25.5783V28.2603L59.6684 28.2583ZM65.5781 23.4258H64.529V24.0117C64.3502 23.7809 64.1186 23.5963 63.8538 23.4734C63.589 23.3504 63.2985 23.2927 63.0068 23.305C61.6557 23.305 60.5906 24.3641 60.5906 25.836C60.5906 27.3079 61.6497 28.367 63.0068 28.367C63.2985 28.3793 63.589 28.3216 63.8538 28.1986C64.1186 28.0757 64.3502 27.8911 64.529 27.6603V28.2442H65.5781V23.4258ZM61.6759 25.842C61.6759 24.9943 62.2296 24.2997 63.1377 24.2997C64.0055 24.2997 64.5894 24.9662 64.5894 25.842C64.5894 26.7179 64.0055 27.3844 63.1377 27.3844C62.2296 27.3925 61.6738 26.6978 61.6738 25.8501L61.6759 25.842ZM88.0209 23.305C88.3757 23.3039 88.7273 23.3723 89.0559 23.5063C89.3626 23.6286 89.6424 23.8099 89.8794 24.0399C90.1127 24.2693 90.2976 24.5432 90.423 24.8453C90.685 25.491 90.685 26.2133 90.423 26.8589C90.2977 27.1611 90.1128 27.435 89.8794 27.6643C89.6424 27.8943 89.3626 28.0756 89.0559 28.1979C88.3901 28.4566 87.6517 28.4566 86.9859 28.1979C86.6795 28.0761 86.4003 27.8947 86.1644 27.6643C85.9323 27.4344 85.7482 27.1606 85.6228 26.8589C85.3611 26.2132 85.3611 25.491 85.6228 24.8453C85.7482 24.5437 85.9323 24.2699 86.1644 24.0399C86.4003 23.8095 86.6795 23.6282 86.9859 23.5063C87.315 23.375 87.6666 23.3094 88.0209 23.313V23.305ZM88.0209 24.2977C87.8141 24.295 87.6088 24.3333 87.4168 24.4104C87.2378 24.4821 87.0754 24.5896 86.9396 24.7265C86.8021 24.8669 86.694 25.0332 86.6215 25.2158C86.4668 25.6197 86.4668 26.0664 86.6215 26.4703C86.6942 26.6522 86.8023 26.8178 86.9396 26.9575C87.0758 27.0954 87.2389 27.2037 87.4188 27.2757C87.8039 27.4267 88.2318 27.4267 88.6169 27.2757C88.7971 27.203 88.9607 27.0948 89.0981 26.9575C89.2365 26.8183 89.3454 26.6525 89.4183 26.4703C89.5729 26.0664 89.5729 25.6197 89.4183 25.2158C89.3456 25.0329 89.2367 24.8665 89.0981 24.7265C88.9605 24.59 88.7969 24.4825 88.6169 24.4104C88.4269 24.3371 88.2245 24.3016 88.0209 24.3057V24.2977ZM71.2764 25.8501C71.2764 24.348 70.3381 23.3191 68.987 23.3191C67.5775 23.3191 66.5869 24.348 66.5869 25.8501C66.5869 27.3824 67.6158 28.3811 69.0575 28.3811C69.7773 28.4063 70.4812 28.1655 71.0347 27.7046L70.5213 26.9273C70.1208 27.2478 69.6247 27.425 69.1118 27.4307C68.4353 27.4307 67.8212 27.1186 67.6701 26.2508H71.2502C71.2764 26.1219 71.2764 25.991 71.2764 25.8501ZM67.6862 25.4273C67.797 24.7306 68.2198 24.2574 68.9669 24.2574C69.6434 24.2574 70.0763 24.6802 70.1871 25.4273H67.6862ZM76.1431 23.8164C75.5491 23.4636 74.8663 23.2888 74.1759 23.313C72.9557 23.313 72.1623 23.897 72.1623 24.8554C72.1623 25.6427 72.7463 26.126 73.8255 26.277L74.3188 26.3474C74.8927 26.428 75.1665 26.579 75.1665 26.8508C75.1665 27.2233 74.7839 27.4347 74.0671 27.4347C73.4888 27.4531 72.9212 27.2758 72.4563 26.9314L71.963 27.7489C72.5739 28.176 73.3059 28.3955 74.051 28.3751C75.4424 28.3751 76.2498 27.7187 76.2498 26.8025C76.2498 25.9548 75.6135 25.5118 74.5665 25.3608L74.0732 25.2903C73.6201 25.2299 73.2557 25.1393 73.2557 24.8172C73.2557 24.4648 73.598 24.2514 74.1738 24.2514C74.7123 24.2558 75.2403 24.4001 75.7061 24.6702L76.1431 23.8164ZM80.7299 23.4339H79.0164V21.972H77.9573V23.4339H76.9787V24.3923H77.9573V26.5911C77.9573 27.7106 78.3902 28.3771 79.6305 28.3771C80.0938 28.3786 80.5481 28.2495 80.9413 28.0046L80.6393 27.1065C80.3578 27.2742 80.0385 27.3677 79.7111 27.3784C79.1875 27.3784 79.0144 27.0562 79.0144 26.573V24.3983H80.74L80.7299 23.4339ZM84.3543 23.313C84.0985 23.3056 83.8454 23.3673 83.6218 23.4917C83.3982 23.6161 83.2123 23.7985 83.0837 24.0198V23.4339H82.0447V28.2543H83.0938V25.5581C83.0938 24.7527 83.4361 24.3178 84.1227 24.3178C84.3473 24.3145 84.5704 24.3556 84.7791 24.4386L85.1013 23.45C84.8615 23.3642 84.6089 23.32 84.3543 23.3191V23.313Z" fill="#000008"/>
<path d="M38.6431 20.1196H32.3005V31.5182H38.6431V20.1196Z" fill="#7673C0"/>
<path d="M32.7052 25.818C32.7044 24.7204 32.9532 23.637 33.4328 22.6498C33.9125 21.6626 34.6104 20.7974 35.4738 20.1197C34.4045 19.2793 33.1203 18.7567 31.7679 18.6117C30.4156 18.4666 29.0498 18.7049 27.8265 19.2994C26.6032 19.8939 25.5718 20.8205 24.8503 21.9734C24.1287 23.1263 23.7461 24.459 23.7461 25.819C23.7461 27.1791 24.1287 28.5118 24.8503 29.6647C25.5718 30.8176 26.6032 31.7442 27.8265 32.3387C29.0498 32.9331 30.4156 33.1715 31.7679 33.0264C33.1203 32.8813 34.4045 32.3587 35.4738 31.5183C34.6102 30.8405 33.9121 29.975 33.4324 28.9874C32.9527 27.9998 32.7041 26.916 32.7052 25.818Z" fill="#EB001B"/>
<path d="M46.5101 30.3101V30.0765H46.6047V30.0282H46.3651V30.0765H46.4598V30.3101H46.5101ZM46.9752 30.3101V30.0282H46.9027L46.8182 30.2296L46.7336 30.0282H46.6591V30.3101H46.7114V30.0987L46.79 30.2819H46.8443L46.9229 30.0987V30.3121L46.9752 30.3101Z" fill="#00A1DF"/>
<path d="M47.2007 25.8179C47.2007 27.1781 46.818 28.5109 46.0963 29.6638C45.3746 30.8167 44.3431 31.7433 43.1197 32.3377C41.8962 32.9321 40.5303 33.1703 39.1779 33.025C37.8255 32.8798 36.5412 32.3569 35.4719 31.5162C36.335 30.838 37.0327 29.9725 37.5125 28.9853C37.9923 27.998 38.2416 26.9146 38.2416 25.8169C38.2416 24.7192 37.9923 23.6359 37.5125 22.6486C37.0327 21.6613 36.335 20.7959 35.4719 20.1176C36.5413 19.2769 37.8258 18.754 39.1784 18.6088C40.5309 18.4636 41.8971 18.7019 43.1206 19.2966C44.3441 19.8912 45.3756 20.8181 46.0971 21.9714C46.8186 23.1246 47.2011 24.4576 47.2007 25.8179Z" fill="#00A1DF"/>
</g>
</g>
<defs>
<filter id="filter0_dd_105_2258" x="0.185432" y="0.948551" width="114.535" height="60.9955" filterUnits="userSpaceOnUse" color-interpolation-filters="sRGB">
<feFlood flood-opacity="0" result="BackgroundImageFix"/>
<feColorMatrix in="SourceAlpha" type="matrix" values="0 0 0 0 0 0 0 0 0 0 0 0 0 0 0 0 0 0 127 0" result="hardAlpha"/>
<feOffset dy="0.576324"/>
<feGaussianBlur stdDeviation="2.88162"/>
<feColorMatrix type="matrix" values="0 0 0 0 0.717647 0 0 0 0 0.717647 0 0 0 0 0.717647 0 0 0 0.08 0"/>
<feBlend mode="normal" in2="BackgroundImageFix" result="effect1_dropShadow_105_2258"/>
<feColorMatrix in="SourceAlpha" type="matrix" values="0 0 0 0 0 0 0 0 0 0 0 0 0 0 0 0 0 0 127 0" result="hardAlpha"/>
<feOffset dy="5.76324"/>
<feGaussianBlur stdDeviation="5.76324"/>
<feColorMatrix type="matrix" values="0 0 0 0 0.717647 0 0 0 0 0.717647 0 0 0 0 0.717647 0 0 0 0.08 0"/>
<feBlend mode="normal" in2="effect1_dropShadow_105_2258" result="effect2_dropShadow_105_2258"/>
<feBlend mode="normal" in="SourceGraphic" in2="effect2_dropShadow_105_2258" result="shape"/>
</filter>
</defs>
</svg>
