<svg width="151" height="98" viewBox="0 0 151 98" fill="none" xmlns="http://www.w3.org/2000/svg">
<g id="Logotype" filter="url(#filter0_dd_105_2262)">
<rect x="29.7568" y="16" width="90.9056" height="37.3661" rx="5.74863" fill="white"/>
<rect x="29.3975" y="15.6407" width="91.6242" height="38.0847" rx="6.10792" stroke="#D6DCE5" stroke-width="0.718579"/>
<g id="Discover">
<g id="Element">
<path d="M63.0788 34.5529C63.0788 37.4552 65.3589 39.7058 68.2915 39.7058C69.1212 39.7058 69.8305 39.5431 70.7065 39.1314V36.8633C69.9366 37.6339 69.2545 37.9443 68.3809 37.9443C66.4407 37.9443 65.0637 36.5378 65.0637 34.5377C65.0637 32.6422 66.4853 31.1463 68.2915 31.1463C69.2106 31.1463 69.9063 31.4742 70.7065 32.2576V29.9911C69.8616 29.5619 69.1659 29.3848 68.337 29.3848C65.4187 29.3848 63.0788 31.6808 63.0788 34.5529Z" fill="#251F1F"/>
<path d="M58.1348 32.1539C58.1348 32.6876 58.4747 32.9692 59.6307 33.3968C61.8222 34.1986 62.4716 34.9087 62.4716 36.4787C62.4716 38.3902 61.0667 39.7209 59.0651 39.7209C57.5995 39.7209 56.5337 39.1433 55.6457 37.8405L56.8903 36.6431C57.3338 37.5007 58.0742 37.9594 58.9925 37.9594C59.8525 37.9594 60.4883 37.3667 60.4883 36.5665C60.4883 36.1516 60.2952 35.7958 59.9107 35.5445C59.7168 35.4256 59.3331 35.2485 58.5792 34.9821C56.7698 34.3311 56.1491 33.6346 56.1491 32.2743C56.1491 30.658 57.4822 29.4438 59.2294 29.4438C60.312 29.4438 61.3029 29.8148 62.1318 30.5392L61.1234 31.8595C60.6215 31.2963 60.1477 31.0593 59.5701 31.0593C58.7396 31.0593 58.1348 31.5316 58.1348 32.1539Z" fill="#251F1F"/>
<path fill-rule="evenodd" clip-rule="evenodd" d="M46.8062 29.6073H43.978V39.4831H46.791C48.2861 39.4831 49.3671 39.1313 50.3149 38.3431C51.4414 37.4105 52.1075 36.0056 52.1075 34.5528C52.1075 31.6377 49.9296 29.6073 46.8062 29.6073ZM49.056 37.0267C48.4505 37.5732 47.6646 37.8118 46.4201 37.8118H45.9031V31.2811H46.4201C47.6646 31.2811 48.4193 31.5028 49.056 32.0796C49.7229 32.6724 50.1226 33.5923 50.1226 34.5376C50.1226 35.4862 49.7229 36.434 49.056 37.0267Z" fill="#251F1F"/>
<path d="M54.9205 29.6073H52.9938V39.4831H54.9205V29.6073Z" fill="#251F1F"/>
<path d="M83.3468 29.6073L85.9811 36.2409L88.6489 29.6073H90.7367L86.4701 39.7376H85.4338L81.243 29.6073H83.3468Z" fill="#251F1F"/>
<path d="M91.6079 39.4831H97.0712V37.8118H93.533V35.1456H96.9404V33.4726H93.533V31.2811H97.0712V29.6073H91.6079V39.4831Z" fill="#251F1F"/>
<path fill-rule="evenodd" clip-rule="evenodd" d="M101.203 29.6073C103.425 29.6073 104.7 30.6739 104.7 32.5232C104.7 34.0358 103.899 35.0283 102.448 35.3227L105.557 39.4831H103.189L100.522 35.5165H100.27V39.4831H98.3468V29.6073H101.203ZM100.27 34.1539H100.834C102.065 34.1539 102.716 33.6202 102.716 32.6269C102.716 31.6656 102.065 31.163 100.864 31.163H100.27V34.1539Z" fill="#251F1F"/>
<path fill-rule="evenodd" clip-rule="evenodd" d="M106.235 30.1251C106.235 29.952 106.114 29.857 105.904 29.857H105.625V30.7274H105.833V30.39L106.076 30.7274H106.33L106.044 30.3684C106.166 30.3357 106.235 30.2464 106.235 30.1251ZM105.868 30.244H105.833V30.0166H105.87C105.973 30.0166 106.026 30.0533 106.026 30.1283C106.026 30.2057 105.972 30.244 105.868 30.244Z" fill="#251F1F"/>
<path fill-rule="evenodd" clip-rule="evenodd" d="M105.187 30.2902C105.187 29.869 105.524 29.5315 105.946 29.5315C106.358 29.5315 106.696 29.8746 106.696 30.2902C106.696 30.7083 106.358 31.0497 105.946 31.0497C105.527 31.0497 105.187 30.7122 105.187 30.2902ZM105.338 30.2918C105.338 30.6372 105.61 30.9141 105.943 30.9141C106.275 30.9141 106.544 30.6341 106.544 30.2918C106.544 29.9511 106.275 29.6679 105.943 29.6679C105.608 29.6679 105.338 29.9448 105.338 30.2918Z" fill="#251F1F"/>
</g>
<g id="Element_2" filter="url(#filter1_i_105_2262)">
<path d="M76.5471 39.981C73.6606 39.981 71.3198 37.6402 71.3198 34.7537V34.7467C71.3198 33.3105 71.9014 32.0038 72.842 31.0632C72.842 31.0559 72.8492 31.0559 72.8492 31.0488C72.8563 31.0488 72.8563 31.0415 72.8636 31.0415C73.8042 30.101 75.1111 29.5194 76.5471 29.5194H76.5544C79.4409 29.5194 81.7816 31.8602 81.7816 34.7467V34.7537C81.7816 36.1899 81.1999 37.4895 80.2593 38.4374C80.2593 38.4445 80.2522 38.4445 80.2522 38.4518C80.2449 38.4518 80.2449 38.4588 80.2379 38.4588C79.29 39.3994 77.9904 39.981 76.5544 39.981H76.5471Z" fill="url(#paint0_linear_105_2262)"/>
</g>
</g>
</g>
<defs>
<filter id="filter0_dd_105_2262" x="0.294916" y="0.909787" width="149.829" height="96.2897" filterUnits="userSpaceOnUse" color-interpolation-filters="sRGB">
<feFlood flood-opacity="0" result="BackgroundImageFix"/>
<feColorMatrix in="SourceAlpha" type="matrix" values="0 0 0 0 0 0 0 0 0 0 0 0 0 0 0 0 0 0 127 0" result="hardAlpha"/>
<feOffset dy="1.43716"/>
<feGaussianBlur stdDeviation="7.18579"/>
<feColorMatrix type="matrix" values="0 0 0 0 0.717647 0 0 0 0 0.717647 0 0 0 0 0.717647 0 0 0 0.08 0"/>
<feBlend mode="normal" in2="BackgroundImageFix" result="effect1_dropShadow_105_2262"/>
<feColorMatrix in="SourceAlpha" type="matrix" values="0 0 0 0 0 0 0 0 0 0 0 0 0 0 0 0 0 0 127 0" result="hardAlpha"/>
<feOffset dy="14.3716"/>
<feGaussianBlur stdDeviation="14.3716"/>
<feColorMatrix type="matrix" values="0 0 0 0 0.717647 0 0 0 0 0.717647 0 0 0 0 0.717647 0 0 0 0.08 0"/>
<feBlend mode="normal" in2="effect1_dropShadow_105_2262" result="effect2_dropShadow_105_2262"/>
<feBlend mode="normal" in="SourceGraphic" in2="effect2_dropShadow_105_2262" result="shape"/>
</filter>
<filter id="filter1_i_105_2262" x="71.3198" y="29.5194" width="11.4487" height="11.9418" filterUnits="userSpaceOnUse" color-interpolation-filters="sRGB">
<feFlood flood-opacity="0" result="BackgroundImageFix"/>
<feBlend mode="normal" in="SourceGraphic" in2="BackgroundImageFix" result="shape"/>
<feColorMatrix in="SourceAlpha" type="matrix" values="0 0 0 0 0 0 0 0 0 0 0 0 0 0 0 0 0 0 127 0" result="hardAlpha"/>
<feOffset dx="0.986834" dy="1.48025"/>
<feGaussianBlur stdDeviation="0.986834"/>
<feComposite in2="hardAlpha" operator="arithmetic" k2="-1" k3="1"/>
<feColorMatrix type="matrix" values="0 0 0 0 0 0 0 0 0 0 0 0 0 0 0 0 0 0 0.35 0"/>
<feBlend mode="normal" in2="shape" result="effect1_innerShadow_105_2262"/>
</filter>
<linearGradient id="paint0_linear_105_2262" x1="73.809" y1="29.5194" x2="82.4052" y2="36.7934" gradientUnits="userSpaceOnUse">
<stop stop-color="#EF3823"/>
<stop offset="0.489583" stop-color="#F04D22"/>
<stop offset="1" stop-color="#F7911D"/>
</linearGradient>
</defs>
</svg>
