<svg width="136" height="30" viewBox="0 0 136 30" fill="none" xmlns="http://www.w3.org/2000/svg" xmlns:xlink="http://www.w3.org/1999/xlink">
<path d="M134.884,17.631C134.967,17.63 135.049,17.647 135.125,17.679C135.199,17.71 135.266,17.755 135.323,17.812C135.379,17.867 135.424,17.933 135.456,18.005C135.488,18.08 135.505,18.161 135.505,18.243C135.505,18.324 135.488,18.405 135.456,18.48C135.424,18.553 135.379,18.618 135.323,18.674C135.266,18.73 135.199,18.775 135.125,18.807C135.049,18.839 134.967,18.856 134.884,18.855C134.761,18.856 134.641,18.822 134.537,18.755C134.434,18.688 134.353,18.593 134.304,18.48C134.272,18.405 134.255,18.324 134.255,18.243C134.255,18.161 134.272,18.08 134.304,18.005C134.367,17.857 134.486,17.74 134.634,17.679C134.713,17.646 134.798,17.63 134.884,17.631ZM134.884,18.718C134.947,18.719 135.01,18.707 135.069,18.682C135.125,18.658 135.175,18.624 135.218,18.581C135.308,18.491 135.358,18.37 135.358,18.243C135.358,18.116 135.308,17.994 135.218,17.904C135.175,17.862 135.125,17.828 135.069,17.804C135.01,17.779 134.947,17.767 134.884,17.768C134.819,17.767 134.754,17.779 134.695,17.804C134.623,17.834 134.559,17.882 134.51,17.943C134.461,18.004 134.428,18.075 134.413,18.152C134.397,18.229 134.401,18.308 134.424,18.382C134.446,18.457 134.487,18.525 134.541,18.581C134.586,18.624 134.638,18.658 134.695,18.682C134.754,18.707 134.819,18.719 134.884,18.718ZM134.92,17.953C134.98,17.949 135.04,17.966 135.089,18.001C135.109,18.017 135.125,18.037 135.135,18.06C135.146,18.083 135.151,18.109 135.15,18.134C135.15,18.156 135.146,18.177 135.138,18.198C135.13,18.218 135.117,18.236 135.101,18.251C135.064,18.284 135.018,18.303 134.968,18.307L135.154,18.521L135.009,18.521L134.835,18.307L134.779,18.307L134.779,18.521L134.658,18.521L134.658,17.953L134.92,17.953ZM134.779,18.057L134.779,18.211L134.92,18.211C134.945,18.218 134.972,18.218 134.997,18.211C135.006,18.204 135.013,18.196 135.018,18.186C135.023,18.176 135.025,18.165 135.025,18.154C135.025,18.143 135.023,18.132 135.018,18.122C135.013,18.112 135.006,18.104 134.997,18.098C134.972,18.09 134.945,18.09 134.92,18.098L134.779,18.057ZM71.337,18.517L71.337,12.476C71.337,10.197 69.883,8.662 67.543,8.642C66.877,8.599 66.211,8.736 65.616,9.037C65.02,9.339 64.516,9.795 64.156,10.358C63.829,9.812 63.36,9.364 62.8,9.062C62.239,8.76 61.607,8.615 60.971,8.642C60.417,8.615 59.866,8.734 59.371,8.985C58.877,9.236 58.457,9.612 58.152,10.076L58.152,8.868L56.054,8.868L56.054,18.509L58.172,18.509L58.172,13.177C58.172,11.501 59.098,10.615 60.532,10.615C61.966,10.615 62.63,11.522 62.63,13.157L62.63,18.521L64.752,18.521L64.752,13.177C64.752,11.501 65.719,10.615 67.112,10.615C68.506,10.615 69.231,11.522 69.231,13.157L69.231,18.521L71.337,18.517ZM83.156,8.852L81.058,8.852L81.058,10.023C80.7,9.562 80.237,9.193 79.708,8.947C79.178,8.701 78.597,8.585 78.014,8.61C75.311,8.61 73.181,10.728 73.181,13.672C73.181,16.616 75.299,18.734 78.014,18.734C78.597,18.759 79.178,18.643 79.708,18.397C80.237,18.151 80.7,17.782 81.058,17.321L81.058,18.488L83.156,18.488L83.156,8.852ZM75.352,13.684C75.352,11.989 76.459,10.599 78.275,10.599C80.011,10.599 81.179,11.932 81.179,13.684C81.179,15.436 80.011,16.769 78.275,16.769C76.459,16.785 75.348,15.396 75.348,13.7L75.352,13.684ZM128.042,8.61C128.751,8.608 129.455,8.745 130.112,9.013C130.725,9.257 131.285,9.62 131.759,10.08C132.225,10.539 132.595,11.086 132.846,11.691C133.37,12.982 133.37,14.427 132.846,15.718C132.595,16.322 132.226,16.87 131.759,17.329C131.285,17.789 130.725,18.151 130.112,18.396C128.78,18.913 127.303,18.913 125.972,18.396C125.359,18.152 124.801,17.789 124.329,17.329C123.865,16.869 123.496,16.321 123.246,15.718C122.722,14.426 122.722,12.982 123.246,11.691C123.496,11.087 123.865,10.54 124.329,10.08C124.801,9.619 125.359,9.256 125.972,9.013C126.63,8.75 127.333,8.619 128.042,8.626L128.042,8.61ZM128.042,10.595C127.628,10.59 127.218,10.667 126.834,10.821C126.476,10.964 126.151,11.179 125.879,11.453C125.604,11.734 125.388,12.066 125.243,12.432C124.934,13.239 124.934,14.133 125.243,14.941C125.388,15.304 125.605,15.636 125.879,15.915C126.152,16.191 126.478,16.407 126.838,16.551C127.608,16.853 128.464,16.853 129.234,16.551C129.594,16.406 129.921,16.19 130.196,15.915C130.473,15.637 130.691,15.305 130.837,14.941C131.146,14.133 131.146,13.239 130.837,12.432C130.691,12.066 130.473,11.733 130.196,11.453C129.921,11.18 129.594,10.965 129.234,10.821C128.854,10.674 128.449,10.603 128.042,10.611L128.042,10.595ZM94.553,13.7C94.553,10.696 92.676,8.638 89.974,8.638C87.155,8.638 85.174,10.696 85.174,13.7C85.174,16.765 87.232,18.762 90.115,18.762C91.555,18.813 92.962,18.331 94.07,17.409L93.043,15.855C92.242,16.496 91.249,16.85 90.224,16.861C88.871,16.861 87.642,16.237 87.34,14.502L94.5,14.502C94.553,14.244 94.553,13.982 94.553,13.7ZM87.373,12.855C87.594,11.461 88.44,10.515 89.934,10.515C91.287,10.515 92.153,11.36 92.374,12.855L87.373,12.855ZM104.286,9.633C103.098,8.927 101.733,8.578 100.352,8.626C97.911,8.626 96.325,9.794 96.325,11.711C96.325,13.285 97.493,14.252 99.651,14.554L100.638,14.695C101.785,14.856 102.333,15.158 102.333,15.702C102.333,16.447 101.568,16.869 100.134,16.869C98.978,16.906 97.843,16.552 96.913,15.863L95.926,17.498C97.148,18.352 98.612,18.791 100.102,18.75C102.885,18.75 104.5,17.437 104.5,15.605C104.5,13.91 103.227,13.024 101.133,12.722L100.146,12.581C99.24,12.46 98.511,12.279 98.511,11.634C98.511,10.93 99.196,10.503 100.348,10.503C101.425,10.512 102.481,10.8 103.412,11.34L104.286,9.633ZM113.46,8.868L110.033,8.868L110.033,5.944L107.915,5.944L107.915,8.868L105.957,8.868L105.957,10.785L107.915,10.785L107.915,15.182C107.915,17.421 108.78,18.754 111.261,18.754C112.188,18.757 113.096,18.499 113.883,18.009L113.279,16.213C112.716,16.548 112.077,16.735 111.422,16.757C110.375,16.757 110.029,16.112 110.029,15.146L110.029,10.797L113.48,10.797L113.46,8.868ZM120.709,8.626C120.197,8.611 119.691,8.735 119.244,8.983C118.796,9.232 118.425,9.597 118.167,10.04L118.167,8.868L116.089,8.868L116.089,18.509L118.188,18.509L118.188,13.116C118.188,11.505 118.872,10.636 120.245,10.636C120.695,10.629 121.141,10.711 121.558,10.877L122.203,8.9C121.723,8.728 121.218,8.64 120.709,8.638L120.709,8.626Z" fill="#000008"/>
<path d="M29.286,2.239L16.601,2.239L16.601,25.036L29.286,25.036L29.286,2.239Z" fill="#7673C0"/>
<path d="M17.41,13.636C17.409,11.441 17.906,9.274 18.866,7.3C19.825,5.325 21.221,3.595 22.948,2.239C20.809,0.559 18.241,-0.487 15.536,-0.777C12.831,-1.067 10.1,-0.59 7.653,0.599C5.206,1.788 3.144,3.641 1.701,5.947C0.257,8.253 -0.508,10.918 -0.508,13.638C-0.508,16.358 0.257,19.024 1.701,21.329C3.144,23.635 5.206,25.488 7.653,26.677C10.1,27.866 12.831,28.343 15.536,28.053C18.241,27.763 20.809,26.718 22.948,25.037C21.22,23.681 19.824,21.95 18.865,19.975C17.905,18 17.408,15.832 17.41,13.636Z" fill="#EB001B"/>
<path d="M45.02,22.62L45.02,22.153L45.209,22.153L45.209,22.056L44.73,22.056L44.73,22.153L44.92,22.153L44.92,22.62L45.02,22.62ZM45.95,22.62L45.95,22.056L45.805,22.056L45.636,22.459L45.467,22.056L45.318,22.056L45.318,22.62L45.423,22.62L45.423,22.197L45.58,22.564L45.689,22.564L45.846,22.197L45.846,22.624L45.95,22.62Z" fill="#00A1DF"/>
<path d="M46.402,13.636C46.401,16.356 45.636,19.022 44.193,21.328C42.749,23.633 40.686,25.487 38.239,26.676C35.792,27.864 33.061,28.341 30.356,28.05C27.651,27.76 25.082,26.714 22.944,25.033C24.67,23.676 26.065,21.945 27.025,19.971C27.985,17.996 28.483,15.829 28.483,13.634C28.483,11.439 27.985,9.272 27.025,7.297C26.065,5.323 24.67,3.592 22.944,2.235C25.083,0.554 27.652,-0.492 30.357,-0.782C33.062,-1.073 35.794,-0.596 38.241,0.593C40.688,1.782 42.751,3.636 44.194,5.943C45.637,8.249 46.402,10.915 46.402,13.636Z" fill="#00A1DF"/>
</svg>
