<svg width="99" height="21" viewBox="0 0 99 21" fill="none" xmlns="http://www.w3.org/2000/svg">
<path id="path90" d="M76.6908 15.8795H78.8626V1.19749H76.6908V15.8795ZM96.2517 6.48611L93.7622 12.8517H93.6877L91.104 6.48611H88.7646L92.6391 15.3827L90.4313 20.3319H92.6949L98.6667 6.48611H96.2517ZM83.9358 14.2118C83.2235 14.2118 82.2319 13.8535 82.2319 12.9645C82.2319 11.8323 83.4668 11.3977 84.534 11.3977C85.4884 11.3977 85.9388 11.6056 86.5184 11.8887C86.3496 13.2487 85.1893 14.2118 83.9358 14.2118ZM84.1977 6.16548C82.6253 6.16548 80.9959 6.86429 80.3232 8.41341L82.2505 9.22497C82.6625 8.41341 83.4295 8.14798 84.2349 8.14798C85.358 8.14798 86.4998 8.828 86.5184 10.0377V10.188C86.125 9.96136 85.2835 9.62194 84.2535 9.62194C82.1761 9.62194 80.0602 10.7741 80.0602 12.9269C80.0602 14.8918 81.7641 16.1578 83.6728 16.1578C85.1334 16.1578 85.9388 15.4966 86.4439 14.7215H86.5184V15.8548H88.6145V10.2256C88.6145 7.61947 86.6872 6.16548 84.1977 6.16548M70.7761 8.27365H67.6873V3.24106H70.7761C72.3997 3.24106 73.3215 4.59757 73.3215 5.75677C73.3215 6.89483 72.3997 8.27365 70.7761 8.27365ZM70.7203 1.19749H65.5167V15.8795H67.6873V10.3172H70.7203C73.1271 10.3172 75.4932 8.55787 75.4932 5.75677C75.4932 2.95566 73.1271 1.19749 70.7203 1.19749M42.3444 14.2141C40.8442 14.2141 39.5884 12.9469 39.5884 11.2063C39.5884 9.44694 40.8442 8.15973 42.3444 8.15973C43.826 8.15973 44.9875 9.44694 44.9875 11.2063C44.9875 12.9469 43.826 14.2141 42.3444 14.2141ZM44.8385 7.30824H44.7629C44.2752 6.72218 43.3383 6.19249 42.157 6.19249C39.6815 6.19249 37.4132 8.3864 37.4132 11.2063C37.4132 14.0062 39.6815 16.1825 42.157 16.1825C43.3383 16.1825 44.2752 15.6528 44.7629 15.0468H44.8385V15.7667C44.8385 17.6776 43.826 18.6994 42.1943 18.6994C40.8628 18.6994 40.0377 17.734 39.7001 16.9201L37.8066 17.7152C38.3501 19.04 39.7944 20.6666 42.1943 20.6666C44.7443 20.6666 46.9009 19.1527 46.9009 15.4637V6.49433H44.8385V7.30824ZM48.4011 15.8795H50.5763V1.19631H48.4011V15.8795ZM53.7816 11.036C53.7257 9.10635 55.2632 8.12214 56.3688 8.12214C57.2324 8.12214 57.9633 8.5567 58.2065 9.18151L53.7816 11.036ZM60.5319 9.3706C60.1199 8.25486 58.863 6.19249 56.2943 6.19249C53.7443 6.19249 51.6261 8.2161 51.6261 11.1875C51.6261 13.9874 53.7257 16.1825 56.5376 16.1825C58.8071 16.1825 60.1199 14.7825 60.6634 13.9686L58.9758 12.8329C58.4137 13.6656 57.6444 14.2141 56.5376 14.2141C55.4319 14.2141 54.644 13.7032 54.1377 12.7014L60.7565 9.93787L60.5319 9.3706ZM7.80013 7.72517V9.84391H12.8245C12.6743 11.036 12.281 11.9063 11.6816 12.5111C10.9495 13.2499 9.80545 14.0638 7.80013 14.0638C4.70545 14.0638 2.28697 11.5469 2.28697 8.42516C2.28697 5.30225 4.70545 2.78654 7.80013 2.78654C9.4691 2.78654 10.6876 3.44894 11.5873 4.30043L13.0689 2.80533C11.8119 1.59445 10.1441 0.666627 7.80013 0.666627C3.56255 0.666627 0 4.14892 0 8.42516C0 12.7014 3.56255 16.1825 7.80013 16.1825C10.0871 16.1825 11.8119 15.425 13.162 14.0062C14.5505 12.6063 14.9811 10.639 14.9811 9.0488C14.9811 8.5567 14.9439 8.10335 14.8682 7.72517H7.80013ZM20.6944 14.2141C19.1942 14.2141 17.9 12.9656 17.9 11.1875C17.9 9.38939 19.1942 8.15973 20.6944 8.15973C22.1935 8.15973 23.4877 9.38939 23.4877 11.1875C23.4877 12.9656 22.1935 14.2141 20.6944 14.2141ZM20.6944 6.19249C17.9559 6.19249 15.7248 8.29244 15.7248 11.1875C15.7248 14.0638 17.9559 16.1825 20.6944 16.1825C23.4318 16.1825 25.6629 14.0638 25.6629 11.1875C25.6629 8.29244 23.4318 6.19249 20.6944 6.19249ZM31.5334 14.2141C30.0332 14.2141 28.739 12.9656 28.739 11.1875C28.739 9.38939 30.0332 8.15973 31.5334 8.15973C33.0336 8.15973 34.3266 9.38939 34.3266 11.1875C34.3266 12.9656 33.0336 14.2141 31.5334 14.2141ZM31.5334 6.19249C28.796 6.19249 26.5649 8.29244 26.5649 11.1875C26.5649 14.0638 28.796 16.1825 31.5334 16.1825C34.2708 16.1825 36.5019 14.0638 36.5019 11.1875C36.5019 8.29244 34.2708 6.19249 31.5334 6.19249Z" fill="black"/>
</svg>
