<svg width="56" height="64" viewBox="0 0 56 64" fill="none" xmlns="http://www.w3.org/2000/svg" xmlns:xlink="http://www.w3.org/1999/xlink">
<path d="M25.479,63.333L-0.428,35.215C-0.425,35.21 -0.425,35.203 -0.423,35.198C0.373,32.144 3.098,29.897 6.334,29.897C7.629,29.897 8.843,30.256 9.885,30.883L9.967,30.933L39.128,48.139L25.479,63.333Z" fill="#EA4335"/>
<path d="M51.687,37.608L51.663,37.625L39.073,45.088L24.89,32.181L39.124,17.629L51.646,25.017C53.841,26.231 55.332,28.598 55.332,31.325C55.332,34.037 53.863,36.391 51.687,37.608Z" fill="#FBBC04"/>
<path d="M-0.43,58.016C-0.585,57.428 -0.668,56.811 -0.668,56.174L-0.668,6.488C-0.668,5.851 -0.585,5.233 -0.427,4.649L26.368,32.047L-0.43,58.016Z" fill="#4285F4"/>
<path d="M25.669,-0.667L39.076,13.041L9.95,30.31C8.891,30.96 7.655,31.333 6.334,31.333C3.098,31.333 0.367,29.081 -0.428,26.025C-0.428,26.023 -0.431,26.02 -0.431,26.018L25.669,-0.667Z" fill="#34A853"/>
</svg>
