<svg width="29" height="33" viewBox="0 0 29 33" fill="none" xmlns="http://www.w3.org/2000/svg">
<g id="Playstore">
<path id="path94" d="M13.7402 15.9489L0.786621 30.0079C0.787838 30.0103 0.787838 30.0141 0.789054 30.0166C1.1869 31.5432 2.54954 32.6666 4.16768 32.6666C4.81493 32.6666 5.42204 32.4875 5.94276 32.1739L5.98413 32.1491L20.5644 23.5457L13.7402 15.9489Z" fill="#EA4335"/>
<path id="path98" d="M26.8442 13.555L26.8321 13.5462L20.5371 9.81502L13.4453 16.2685L20.5627 23.5443L26.8235 19.8504C27.921 19.2433 28.6668 18.0601 28.6668 16.6965C28.6668 15.3403 27.9319 14.1634 26.8442 13.555Z" fill="#FBBC04"/>
<path id="path102" d="M0.785735 3.32446C0.70787 3.61808 0.666504 3.92663 0.666504 4.24513V29.0885C0.666504 29.407 0.70787 29.7156 0.786952 30.0079L14.1846 16.3085L0.785735 3.32446Z" fill="#4285F4"/>
<path id="path106" d="M13.8354 16.6665L20.5391 9.81243L5.97585 1.17797C5.44661 0.853243 4.82856 0.66662 4.16792 0.66662C2.54978 0.66662 1.1847 1.79258 0.786861 3.32041C0.786861 3.32165 0.785645 3.3229 0.785645 3.32414L13.8354 16.6665Z" fill="#34A853"/>
</g>
</svg>
