<svg width="38" height="38" viewBox="0 0 38 38" fill="none" xmlns="http://www.w3.org/2000/svg" xmlns:xlink="http://www.w3.org/1999/xlink">
<path d="M28.036,0.536C27.19,0.583 26.345,0.677 25.546,0.959C24.277,1.429 23.055,2.134 22.021,3.168C21.724,3.356 21.473,3.609 21.286,3.908C21.1,4.207 20.983,4.543 20.944,4.894C20.905,5.244 20.946,5.598 21.062,5.93C21.179,6.262 21.369,6.564 21.618,6.813C21.867,7.062 22.169,7.252 22.501,7.369C22.833,7.485 23.188,7.526 23.538,7.487C23.888,7.448 24.225,7.332 24.523,7.145C24.822,6.959 25.075,6.707 25.264,6.41C25.781,5.893 26.391,5.611 27.049,5.376C28.694,4.812 30.715,5.047 32.03,6.41C33.863,8.242 33.863,11.297 32.03,13.176L24.982,20.225C22.914,22.292 21.223,22.48 20.001,22.433C18.779,22.386 18.074,21.823 18.074,21.823C17.803,21.668 17.504,21.569 17.194,21.53C16.884,21.492 16.569,21.515 16.268,21.597C15.967,21.68 15.685,21.822 15.439,22.014C15.192,22.205 14.986,22.444 14.832,22.715C14.678,22.987 14.578,23.286 14.54,23.596C14.501,23.906 14.524,24.22 14.607,24.521C14.69,24.823 14.831,25.104 15.023,25.351C15.215,25.597 15.453,25.803 15.725,25.958C15.725,25.958 17.322,26.991 19.672,27.132C22.021,27.273 25.311,26.381 28.177,23.467L35.226,16.419C38.891,12.753 38.891,6.833 35.226,3.215C33.91,1.899 32.359,1.1 30.668,0.724C29.822,0.536 28.882,0.536 28.036,0.583L28.036,0.536ZM18.638,11.391C16.289,11.297 13.046,12.096 10.274,14.915L3.225,21.964C-0.44,25.629 -0.44,31.549 3.225,35.168C5.857,37.799 9.616,38.551 12.905,37.376C14.174,36.906 15.396,36.201 16.43,35.168C16.727,34.979 16.978,34.726 17.165,34.427C17.351,34.129 17.468,33.792 17.507,33.442C17.546,33.092 17.505,32.737 17.389,32.405C17.272,32.073 17.082,31.771 16.833,31.522C16.584,31.273 16.282,31.083 15.95,30.966C15.618,30.85 15.263,30.809 14.913,30.848C14.563,30.887 14.226,31.004 13.928,31.19C13.629,31.377 13.376,31.628 13.187,31.925C12.67,32.442 12.06,32.724 11.402,32.959C9.757,33.523 7.736,33.288 6.421,31.925C4.588,30.093 4.588,27.038 6.421,25.159L13.469,18.11C15.349,16.231 16.993,15.996 18.309,16.043C19.625,16.09 20.518,16.466 20.518,16.466C20.793,16.672 21.11,16.816 21.447,16.886C21.784,16.956 22.132,16.952 22.467,16.873C22.802,16.794 23.116,16.642 23.386,16.428C23.655,16.215 23.875,15.945 24.029,15.637C24.183,15.329 24.267,14.991 24.276,14.647C24.285,14.303 24.218,13.961 24.081,13.646C23.943,13.331 23.738,13.049 23.479,12.822C23.221,12.595 22.916,12.427 22.585,12.331C22.585,12.331 20.988,11.391 18.638,11.297L18.638,11.391Z" fill="#FFFFFF"/>
</svg>
