<svg width="42" height="42" viewBox="0 0 42 42" fill="none" xmlns="http://www.w3.org/2000/svg">
<g id="Social">
<g id="Vector">
<path d="M32.0146 12.0937C30.6459 12.0963 29.5331 10.9881 29.5304 9.61944C29.5277 8.25075 30.6359 7.13787 32.0052 7.1352C33.3746 7.13252 34.4874 8.24138 34.4901 9.61006C34.4921 10.9788 33.3839 12.091 32.0146 12.0937Z" fill="white"/>
<path fill-rule="evenodd" clip-rule="evenodd" d="M21.0204 31.2773C15.1607 31.2887 10.4005 26.5478 10.3892 20.6867C10.3778 14.827 15.1199 10.0661 20.9796 10.0547C26.8406 10.0433 31.6014 14.7868 31.6129 20.6459C31.6242 26.507 26.8808 31.2659 21.0204 31.2773ZM20.9869 13.7784C17.1836 13.7851 14.1048 16.8753 14.1115 20.6794C14.1188 24.4841 17.2097 27.5623 21.0131 27.5549C24.8177 27.5476 27.8966 24.458 27.8892 20.6533C27.8818 16.8485 24.791 13.771 20.9869 13.7784Z" fill="white"/>
<path fill-rule="evenodd" clip-rule="evenodd" d="M7.42817 1.11338C8.7406 0.599119 10.2425 0.246902 12.4415 0.143114C14.6458 0.0373251 15.3496 0.0132112 20.9608 0.00250174C26.5734 -0.00820773 27.2772 0.0132071 29.4815 0.110969C31.6811 0.206052 33.1837 0.552917 34.4988 1.06183C35.8595 1.58612 37.0138 2.2919 38.1642 3.4376C39.3146 4.58464 40.023 5.73504 40.554 7.09367C41.0676 8.40745 41.4198 9.90804 41.5243 12.1084C41.6288 14.3121 41.6542 15.0151 41.6649 20.6272C41.6756 26.2385 41.6528 26.9429 41.5564 29.1486C41.4607 31.3469 41.1145 32.8502 40.6056 34.1647C40.0799 35.5253 39.3755 36.6797 38.2298 37.8301C37.0841 38.9812 35.9324 39.6889 34.5738 40.2206C33.26 40.7335 31.7595 41.0858 29.5605 41.1909C27.3562 41.2953 26.6524 41.3201 21.0392 41.3308C15.4286 41.3415 14.7248 41.3201 12.5205 41.223C10.3208 41.1266 8.8176 40.7804 7.50316 40.2722C6.14255 39.7459 4.98815 39.0421 3.83777 37.8957C2.68673 36.7494 1.97765 35.5983 1.44733 34.2397C0.933072 32.9266 0.582169 31.4253 0.477054 29.2269C0.371935 27.0219 0.347168 26.3175 0.336463 20.7062C0.325716 15.0942 0.347825 14.3911 0.444235 12.1867C0.54134 9.98639 0.886192 8.48377 1.3951 7.16799C1.92072 5.80801 2.62513 4.65427 3.77217 3.50322C4.91786 2.35284 6.06955 1.64303 7.42817 1.11338ZM8.84441 36.8003C9.5736 37.0808 10.6677 37.4156 12.6826 37.5033C14.8628 37.5977 15.5156 37.6185 21.0325 37.6078C26.5513 37.5977 27.2042 37.5743 29.3837 37.4719C31.3966 37.3761 32.4907 37.0373 33.2179 36.7534C34.1828 36.3764 34.8698 35.9257 35.5916 35.2032C36.3134 34.478 36.7601 33.789 37.1337 32.8241C37.4149 32.0942 37.7491 30.9994 37.8368 28.9845C37.9325 26.8056 37.9526 26.1521 37.9419 20.6339C37.9319 15.1169 37.9084 14.4634 37.8047 12.2838C37.7095 10.2703 37.3714 9.17614 37.0868 8.44962C36.7098 7.48338 36.2605 6.79771 35.536 6.07519C34.8115 5.35268 34.1225 4.90738 33.1563 4.53375C32.4284 4.25185 31.3329 3.91837 29.3195 3.83066C27.1392 3.73491 26.4857 3.71547 20.9675 3.7262C15.4507 3.73691 14.7978 3.759 12.6183 3.86213C10.6041 3.95787 9.51131 4.29603 8.78277 4.58062C7.81854 4.9576 7.13154 5.40558 6.40905 6.13077C5.68787 6.85594 5.24125 7.54364 4.86763 8.51056C4.58775 9.2391 4.25091 10.3346 4.16455 12.3481C4.06945 14.5283 4.04938 15.1819 4.06009 20.6988C4.07015 26.2171 4.09357 26.8706 4.19602 29.0488C4.29043 31.0637 4.63124 32.1565 4.91451 32.8857C5.29148 33.8493 5.7408 34.5363 6.46463 35.2588C7.18982 35.9786 7.87883 36.4266 8.84441 36.8003Z" fill="white"/>
</g>
</g>
</svg>
