<svg width="42" height="42" viewBox="0 0 42 42" fill="none" xmlns="http://www.w3.org/2000/svg">
<g id="Social" clip-path="url(#clip0_129_52)">
<path id="Vector" d="M20.6667 0C32.0805 0 41.3333 9.25279 41.3333 20.6667C41.3333 31.2329 33.4034 39.946 23.1705 41.1819V26.9821L28.7612 26.982L29.9209 20.6667H23.1705V18.4331C23.1705 16.7644 23.4978 15.6092 24.2486 14.8711C24.9996 14.133 26.1741 13.8121 27.8685 13.8121C28.2973 13.8121 28.6921 13.8164 29.0423 13.8249C29.5517 13.8373 29.967 13.8587 30.2561 13.8891V8.16416C30.1405 8.13206 30.0042 8.09997 29.8514 8.06837C29.5052 7.9968 29.0749 7.9278 28.6123 7.86722C27.6457 7.74058 26.5382 7.65063 25.7634 7.65063C22.6341 7.65063 20.2692 8.3201 18.6184 9.70677C16.6261 11.3803 15.6741 14.0985 15.6741 17.9454V20.6667H11.4125V26.982H15.6741V40.7247C6.67243 38.4914 0 30.3589 0 20.6667C0 9.25279 9.25279 0 20.6667 0Z" fill="white"/>
</g>
<defs>
<clipPath id="clip0_129_52">
<rect width="41.3333" height="41.3333" fill="white"/>
</clipPath>
</defs>
</svg>
