<svg width="32" height="18" viewBox="0 0 32 18" fill="none" xmlns="http://www.w3.org/2000/svg" xmlns:xlink="http://www.w3.org/1999/xlink">
<path d="M31.414,3.081C32.195,2.3 32.195,1.034 31.414,0.253C30.633,-0.528 29.367,-0.528 28.586,0.253L31.414,3.081ZM16,15.667L14.586,17.081C15.367,17.862 16.633,17.862 17.414,17.081L16,15.667ZM3.414,0.253C2.633,-0.528 1.367,-0.528 0.586,0.253C-0.195,1.034 -0.195,2.3 0.586,3.081L3.414,0.253ZM28.586,0.253L14.586,14.253L17.414,17.081L31.414,3.081L28.586,0.253ZM17.414,14.253L3.414,0.253L0.586,3.081L14.586,17.081L17.414,14.253Z" transform="rotate(-180 16 8.667)" fill="#2F80ED"/>
</svg>
