<svg width="27" height="28" viewBox="0 0 27 28" fill="none" xmlns="http://www.w3.org/2000/svg">
<g id="Icon / Call">
<g id="vuesax/outline/call">
<g id="call">
<path id="Vector" d="M19.1594 25.8033C17.9187 25.8033 16.6122 25.5068 15.2617 24.9359C13.9441 24.3759 12.6156 23.6074 11.32 22.6741C10.0354 21.7299 8.79473 20.6758 7.61992 19.523C6.45609 18.3482 5.40205 17.1075 4.46879 15.8339C3.52455 14.5163 2.76696 13.1988 2.22896 11.9251C1.65803 10.5637 1.37256 9.24613 1.37256 8.00544C1.37256 7.14904 1.52627 6.33655 1.82272 5.57896C2.13015 4.79942 2.62423 4.07477 3.29398 3.44893C4.1394 2.61449 5.1056 2.19727 6.13768 2.19727C6.56588 2.19727 7.00506 2.29608 7.37837 2.47175C7.80657 2.66939 8.16889 2.96583 8.4324 3.3611L10.9797 6.95141C11.2102 7.26981 11.3859 7.57724 11.5067 7.88467C11.6494 8.21405 11.7263 8.54344 11.7263 8.86185C11.7263 9.27907 11.6055 9.68531 11.3749 10.0696C11.2102 10.366 10.9577 10.6845 10.6393 11.0029L9.89268 11.7824C9.90366 11.8153 9.91464 11.8373 9.92562 11.8593C10.0574 12.0898 10.3209 12.4851 10.8259 13.078C11.3639 13.6928 11.869 14.2528 12.3741 14.7688C13.0219 15.4057 13.5598 15.9107 14.0649 16.3279C14.6907 16.855 15.097 17.1185 15.3385 17.2392L15.3166 17.2941L16.1181 16.5036C16.4584 16.1632 16.7878 15.9107 17.1062 15.746C17.7101 15.3727 18.4787 15.3068 19.2472 15.6252C19.5327 15.746 19.8401 15.9107 20.1695 16.1413L23.8147 18.7325C24.221 19.0069 24.5174 19.3583 24.6931 19.7755C24.8578 20.1927 24.9346 20.577 24.9346 20.9613C24.9346 21.4883 24.8139 22.0153 24.5833 22.5094C24.3527 23.0035 24.0673 23.4317 23.7049 23.827C23.0791 24.5187 22.3984 25.0128 21.6078 25.3312C20.8503 25.6386 20.0268 25.8033 19.1594 25.8033ZM6.13768 3.8442C5.5338 3.8442 4.97385 4.10771 4.43585 4.63472C3.93079 5.10684 3.57945 5.62288 3.35986 6.18284C3.12928 6.75378 3.01949 7.35765 3.01949 8.00544C3.01949 9.02654 3.26104 10.1355 3.74414 11.2773C4.23822 12.4412 4.92993 13.6489 5.80829 14.8567C6.68666 16.0644 7.68579 17.2392 8.78375 18.3482C9.8817 19.4351 11.0675 20.4453 12.2862 21.3346C13.472 22.202 14.6907 22.9047 15.8985 23.4097C17.776 24.2112 19.5327 24.3979 20.982 23.794C21.542 23.5635 22.0361 23.2121 22.4862 22.7071C22.7387 22.4326 22.9364 22.1361 23.1011 21.7848C23.2328 21.5103 23.2987 21.2248 23.2987 20.9393C23.2987 20.7637 23.2658 20.588 23.1779 20.3904C23.145 20.3245 23.0791 20.2037 22.8705 20.061L19.2253 17.4698C19.0057 17.3161 18.8081 17.2063 18.6214 17.1294C18.3799 17.0306 18.281 16.9318 17.9077 17.1624C17.6882 17.2722 17.4905 17.4369 17.2709 17.6565L16.4365 18.4799C16.0083 18.8971 15.3495 18.996 14.8445 18.8093L14.548 18.6776C14.0978 18.436 13.5708 18.0627 12.9889 17.5686C12.4619 17.1185 11.891 16.5914 11.1992 15.9107C10.6612 15.3617 10.1233 14.7798 9.56329 14.132C9.04726 13.5282 8.67395 13.0121 8.44338 12.5839L8.31163 12.2545C8.24575 12.002 8.22379 11.8593 8.22379 11.7055C8.22379 11.3103 8.36652 10.9589 8.64101 10.6845L9.46448 9.82805C9.68407 9.60846 9.84876 9.39984 9.95856 9.21319C10.0464 9.07046 10.0793 8.94968 10.0793 8.83989C10.0793 8.75205 10.0464 8.6203 9.9915 8.48854C9.91464 8.31287 9.79387 8.11524 9.64015 7.90663L7.0929 4.30534C6.9831 4.15162 6.85135 4.04183 6.68666 3.96497C6.51098 3.88811 6.32433 3.8442 6.13768 3.8442ZM15.3166 17.3051L15.1409 18.0517L15.4373 17.2832C15.3825 17.2722 15.3385 17.2832 15.3166 17.3051Z" fill="#001E48"/>
</g>
</g>
</g>
</svg>
