<svg width="23" height="20" viewBox="0 0 23 20" fill="none" xmlns="http://www.w3.org/2000/svg">
<path id="Union" fill-rule="evenodd" clip-rule="evenodd" d="M3.41605 11.0013L10.7098 18.2933C10.8976 18.481 11.003 18.7357 11.003 19.0013C11.003 19.2668 10.8976 19.5215 10.7098 19.7093C10.522 19.897 10.2673 20.0025 10.0018 20.0025C9.73624 20.0025 9.48156 19.897 9.29379 19.7093L0.293787 10.7093C0.200661 10.6164 0.126776 10.506 0.0763626 10.3845C0.0259497 10.263 0 10.1328 0 10.0013C0 9.86973 0.0259497 9.73949 0.0763626 9.618C0.126776 9.49651 0.200661 9.38615 0.293787 9.29326L9.29379 0.293263C9.48156 0.10549 9.73624 0 10.0018 0C10.2673 0 10.522 0.10549 10.7098 0.293263C10.8976 0.481036 11.003 0.735712 11.003 1.00126C11.003 1.26681 10.8976 1.52149 10.7098 1.70926L3.41601 9.00128H22.002C22.2672 9.00128 22.5215 9.10664 22.7091 9.29418C22.8966 9.48171 23.002 9.73606 23.002 10.0013C23.002 10.2665 22.8966 10.5209 22.7091 10.7084C22.5215 10.8959 22.2672 11.0013 22.002 11.0013H3.41605Z" fill="#2F80ED"/>
</svg>
