<svg width="23" height="20" viewBox="0 0 23 20" fill="none" xmlns="http://www.w3.org/2000/svg">
<path id="Union" fill-rule="evenodd" clip-rule="evenodd" d="M19.5859 9.00167L12.2922 1.70967C12.1044 1.52189 11.9989 1.26722 11.9989 1.00167C11.9989 0.736115 12.1044 0.481439 12.2922 0.293666C12.4799 0.105893 12.7346 0.00040346 13.0002 0.000403484C13.2657 0.000403507 13.5204 0.105893 13.7082 0.293666L22.7082 9.29367C22.8013 9.38656 22.8752 9.49691 22.9256 9.6184C22.976 9.73989 23.002 9.87013 23.002 10.0017C23.002 10.1332 22.976 10.2634 22.9256 10.3849C22.8752 10.5064 22.8013 10.6168 22.7082 10.7097L13.7082 19.7097C13.5204 19.8974 13.2657 20.0029 13.0002 20.0029C12.7346 20.0029 12.4799 19.8974 12.2922 19.7097C12.1044 19.5219 11.9989 19.2672 11.9989 19.0017C11.9989 18.7361 12.1044 18.4814 12.2922 18.2937L19.5859 11.0017L1 11.0017C0.734784 11.0017 0.480429 10.8963 0.292893 10.7088C0.105355 10.5212 8.51152e-07 10.2669 8.74338e-07 10.0017C8.97524e-07 9.73645 0.105355 9.48209 0.292893 9.29456C0.48043 9.10702 0.734784 9.00167 1 9.00167L19.5859 9.00167Z" fill="white"/>
</svg>
