<svg width="48" height="42" viewBox="0 0 48 42" fill="none" xmlns="http://www.w3.org/2000/svg" xmlns:xlink="http://www.w3.org/1999/xlink">
<path d="M6.832,22.003L21.42,36.587C21.795,36.962 22.006,37.471 22.006,38.003C22.006,38.534 21.795,39.043 21.42,39.419C21.044,39.794 20.535,40.005 20.004,40.005C19.472,40.005 18.963,39.794 18.588,39.419L0.588,21.419C0.401,21.233 0.254,21.012 0.153,20.769C0.052,20.526 0,20.266 0,20.003C0,19.739 0.052,19.479 0.153,19.236C0.254,18.993 0.401,18.772 0.588,18.587L18.588,0.587C18.963,0.211 19.472,0 20.004,0C20.535,0 21.044,0.211 21.42,0.587C21.795,0.962 22.006,1.471 22.006,2.003C22.006,2.534 21.795,3.043 21.42,3.419L6.832,18.003L44.004,18.003C44.534,18.003 45.043,18.213 45.418,18.588C45.793,18.963 46.004,19.472 46.004,20.003C46.004,20.533 45.793,21.042 45.418,21.417C45.043,21.792 44.534,22.003 44.004,22.003L6.832,22.003Z" clip-rule="evenodd" fill-rule="evenodd" fill="#2F80ED"/>
</svg>
