<svg width="72" height="84" viewBox="0 0 72 84" fill="none" xmlns="http://www.w3.org/2000/svg" xmlns:xlink="http://www.w3.org/1999/xlink">
<path d="M52.14,0L38.208,0L38.208,56.309C38.208,63.018 32.85,68.53 26.182,68.53C19.514,68.53 14.155,63.018 14.155,56.309C14.155,49.72 19.395,44.328 25.825,44.089L25.825,29.952C11.655,30.191 0.224,41.813 0.224,56.309C0.224,70.926 11.893,82.667 26.301,82.667C40.709,82.667 52.378,70.806 52.378,56.309L52.378,27.436C57.617,31.27 64.047,33.546 70.835,33.666L70.835,19.529C60.356,19.169 52.14,10.543 52.14,0Z" fill="#FFFFFF"/>
</svg>
