<svg width="29" height="20" viewBox="0 0 29 20" fill="none" xmlns="http://www.w3.org/2000/svg">
<path fill-rule="evenodd" clip-rule="evenodd" d="M0.601074 1C0.601074 0.585786 0.936861 0.25 1.35107 0.25H3.45392C3.83421 0.25 4.20415 0.37388 4.50776 0.60289C4.81136 0.831901 5.03211 1.15358 5.13658 1.51924L6.20251 5.25H28.0654C28.3007 5.25 28.5224 5.36047 28.6641 5.54835C28.8058 5.73624 28.8512 5.97975 28.7865 6.20604L25.4867 17.7555C25.3225 18.3301 24.9756 18.8356 24.4985 19.1955C24.0214 19.5553 23.4401 19.75 22.8425 19.75H10.8597C10.2621 19.75 9.68073 19.5553 9.20364 19.1955C8.72654 18.8356 8.37966 18.3301 8.21549 17.7555L4.92035 6.2225C4.91705 6.21186 4.91398 6.20113 4.91115 6.1903L3.6943 1.93132C3.67937 1.87908 3.64784 1.83313 3.60446 1.80041C3.56109 1.7677 3.50824 1.75 3.45392 1.75H1.35107C0.936861 1.75 0.601074 1.41421 0.601074 1ZM6.63109 6.75L9.65777 17.3434C9.7324 17.6046 9.89007 17.8344 10.1069 17.9979C10.3238 18.1615 10.588 18.25 10.8597 18.25H22.8425C23.1141 18.25 23.3784 18.1615 23.5952 17.9979C23.8121 17.8344 23.9698 17.6046 24.0444 17.3434L27.0711 6.75H6.63109Z" fill="#8A9CA7"/>
</svg>
