<svg width="84" height="84" viewBox="0 0 84 84" fill="none" xmlns="http://www.w3.org/2000/svg" xmlns:xlink="http://www.w3.org/1999/xlink">
<path d="M41.333,0C64.161,0 82.667,18.506 82.667,41.333C82.667,62.466 66.807,79.892 46.341,82.364L46.341,53.964L57.522,53.964L59.842,41.333L46.341,41.333L46.341,36.866C46.341,33.529 46.996,31.218 48.497,29.742C49.999,28.266 52.348,27.624 55.737,27.624C56.595,27.624 57.384,27.633 58.085,27.65C59.103,27.675 59.934,27.717 60.512,27.778L60.512,16.328C60.281,16.264 60.008,16.2 59.703,16.137C59.01,15.994 58.15,15.856 57.225,15.734C55.291,15.481 53.076,15.301 51.527,15.301C45.268,15.301 40.538,16.64 37.237,19.414C33.252,22.761 31.348,28.197 31.348,35.891L31.348,41.333L22.825,41.333L22.825,53.964L31.348,53.964L31.348,81.449C13.345,76.983 0,60.718 0,41.333C0,18.506 18.506,0 41.333,0Z" fill="#FFFFFF"/>
</svg>
