<svg width="182" height="146" viewBox="0 0 182 146" fill="none" xmlns="http://www.w3.org/2000/svg" xmlns:xlink="http://www.w3.org/1999/xlink">
<path d="M179.149,116.93C180.724,116.93 182,115.667 182,114.109L182,71.999C182,70.47 180.696,69.178 179.149,69.178L166.801,69.178L166.801,35.904C166.801,31.032 162.794,27.068 157.871,27.068L72.409,27.068C70.68,11.906 55.139,0 36.286,0C16.278,0 0,13.408 0,29.891C0,39.9 6.004,48.774 15.199,54.201L15.199,100.199C15.199,101.757 16.476,103.02 18.05,103.02C19.624,103.02 20.9,101.757 20.9,100.199L20.9,56.957C25.576,58.767 30.79,59.782 36.289,59.782C37.949,59.782 39.619,59.687 41.269,59.5L59.014,71.33C60.112,72.062 61.616,71.936 62.574,71.031C63.386,70.263 63.668,69.066 63.281,68.021L58.026,53.837C62.071,51.349 65.379,48.242 67.813,44.731C67.879,44.735 67.945,44.742 68.013,44.742L161.104,44.742L161.104,69.18L118.359,69.18C116.808,69.18 115.509,70.468 115.509,72.001L115.509,114.111C115.509,115.669 116.785,116.932 118.359,116.932L161.104,116.932L161.104,123.323L20.898,123.323L20.898,114.863C20.898,113.305 19.622,112.043 18.048,112.043C16.473,112.043 15.197,113.305 15.197,114.863L15.197,123.323L2.851,123.323C1.276,123.323 0,124.586 0,126.144L0,129.151C0,137.341 6.734,144.002 15.008,144.002L134.125,144.002C135.699,144.002 136.975,142.739 136.975,141.182C136.975,139.624 135.699,138.361 134.125,138.361L15.008,138.361C9.876,138.361 5.699,134.228 5.699,129.149L5.699,128.962L176.301,128.962L176.301,129.149C176.301,134.228 172.127,138.361 166.992,138.361L148.564,138.361C146.99,138.361 145.714,139.624 145.714,141.182C145.714,142.739 146.99,144.002 148.564,144.002L166.992,144.002C175.268,144.002 182,137.339 182,129.151L182,126.144C182,124.586 180.724,123.323 179.149,123.323L166.801,123.323L166.801,116.932L179.149,116.932L179.149,116.93ZM53.183,50.093C51.929,50.755 51.358,52.231 51.847,53.551L54.898,61.79L43.559,54.23C42.486,53.517 41.305,53.832 40.113,53.951C38.841,54.077 37.563,54.143 36.284,54.143C19.419,54.143 5.697,43.265 5.697,29.891C5.697,16.517 19.419,5.639 36.286,5.639C53.153,5.639 66.874,16.519 66.874,29.891C66.874,38.015 61.755,45.568 53.185,50.093L53.183,50.093ZM70.823,39.103C71.626,37.045 72.163,34.904 72.411,32.712L157.874,32.712C159.655,32.712 161.104,34.146 161.104,35.908L161.104,39.105L70.823,39.105L70.823,39.103ZM172.27,74.82L148.753,98.09L125.236,74.82L172.27,74.82ZM121.207,111.288L121.207,78.806L146.74,104.071C147.839,105.158 149.672,105.158 150.771,104.071L176.303,78.806L176.303,111.288L121.21,111.288L121.207,111.288Z" transform="rotate(360 91 72.001)" fill="#001E48"/>
</svg>
