<svg width="198" height="142" viewBox="0 0 198 142" fill="none" xmlns="http://www.w3.org/2000/svg" xmlns:xlink="http://www.w3.org/1999/xlink">
<path d="M34.536,47.809C30.891,46.647 22.916,44.913 16.458,49.224C11.456,52.56 6.947,59.683 6.933,74.475L3.509,74.475C1.574,74.475 0.004,76.044 0.004,77.976L0.004,137.499C0.004,139.432 1.574,141 3.509,141L10.519,141C13.309,141 15.984,139.894 17.953,137.922C19.927,135.953 21.035,133.284 21.035,130.496L21.035,118.242L36.808,118.242C40.117,118.242 43.075,116.712 44.999,114.32C45.181,114.197 45.352,114.054 45.514,113.892L84.256,75.192L146.532,91.861C148.4,92.363 150.32,91.254 150.822,89.385L152.311,83.839L164.498,87.1C170.109,88.601 175.874,85.279 177.374,79.674L181.289,65.086L195.758,51.618C197.631,49.876 198.411,47.252 197.791,44.773C197.174,42.291 195.256,40.336 192.783,39.675L42.079,-0.759C40.285,-1.24 38.372,-0.988 36.76,-0.061C35.148,0.866 33.973,2.395 33.493,4.188L24.817,36.518C24.318,38.389 25.426,40.308 27.296,40.806L35.93,43.117L34.539,47.806L34.536,47.809ZM10.494,81.478L7.011,81.478L7.011,133.998L10.516,133.998C11.445,133.998 12.339,133.631 12.995,132.973C13.654,132.317 14.022,131.424 14.022,130.496L14.022,84.979C14.022,84.052 13.654,83.158 12.995,82.503C12.339,81.848 11.45,81.478 10.525,81.478L10.497,81.478L10.494,81.478ZM21.032,104.236L21.032,111.239L26.89,111.239C26.5,110.144 26.29,108.967 26.29,107.738C26.29,106.508 26.5,105.332 26.89,104.236L21.032,104.236ZM36.805,104.236C38.74,104.236 40.31,105.805 40.31,107.738C40.31,109.671 38.74,111.239 36.805,111.239C34.87,111.239 33.3,109.671 33.3,107.738C33.3,105.805 34.87,104.236 36.805,104.236ZM46.294,103.208L76.435,73.1L68.62,71.007L41.339,98.259C43.507,99.293 45.262,101.046 46.297,103.211L46.294,103.208ZM32.56,54.47C30.316,53.632 24.789,52.086 20.348,55.047C16.453,57.646 13.806,63.461 13.937,75.044C15.435,75.559 16.812,76.408 17.95,77.551C19.924,79.52 21.032,82.189 21.032,84.976L21.032,97.231L32.447,97.231L60.797,68.912L34.144,61.781C33.233,61.537 32.453,60.932 31.99,60.111C31.53,59.285 31.424,58.313 31.687,57.405L32.557,54.473L32.56,54.47ZM42.702,44.932L39.435,55.946L144.956,84.189L151.526,59.705L141.361,56.985L132.503,66.965C131.623,67.957 130.257,68.369 128.973,68.027L42.702,44.935L42.702,44.932ZM173.869,65.685L170.605,77.859C170.103,79.73 168.18,80.839 166.312,80.338L154.12,77.075L158.295,61.515L173.869,65.685ZM177.195,59.327L190.98,46.498C190.98,46.498 190.991,46.476 190.991,46.462C190.988,46.45 190.977,46.439 190.966,46.436L40.265,6.003L32.498,34.952L36.595,36.05C36.634,36.059 36.673,36.067 36.71,36.078L128.695,60.7L137.553,50.717C138.434,49.725 139.799,49.316 141.084,49.658L177.198,59.324L177.195,59.327ZM87.823,29.462C90.29,30.12 91.754,32.658 91.098,35.12C90.436,37.585 87.898,39.047 85.431,38.392C82.963,37.731 81.499,35.196 82.161,32.731C82.82,30.266 85.358,28.804 87.825,29.465L87.823,29.462ZM69.947,24.675C72.414,25.336 73.878,27.871 73.216,30.336C72.557,32.798 70.017,34.263 67.552,33.602C65.084,32.944 63.621,30.406 64.277,27.941C64.938,25.479 67.476,24.014 69.944,24.675L69.947,24.675ZM52.07,19.888C54.538,20.549 56.002,23.084 55.34,25.549C54.681,28.014 52.141,29.476 49.676,28.821C47.208,28.16 45.744,25.625 46.401,23.16C47.062,20.695 49.6,19.233 52.068,19.888L52.07,19.888Z" clip-rule="evenodd" fill-rule="evenodd" fill="#001E48"/>
</svg>
