<svg width="84" height="84" viewBox="0 0 84 84" fill="none" xmlns="http://www.w3.org/2000/svg" xmlns:xlink="http://www.w3.org/1999/xlink">
<path d="M64.028,24.187C61.291,24.193 59.065,21.976 59.06,19.239C59.054,16.502 61.271,14.276 64.01,14.27C66.748,14.265 68.974,16.483 68.979,19.22C68.983,21.958 66.767,24.182 64.028,24.187Z" fill="#FFFFFF"/>
<path d="M42.04,62.555C30.321,62.577 20.8,53.096 20.777,41.373C20.755,29.654 30.239,20.132 41.958,20.109C53.68,20.087 63.202,29.574 63.225,41.292C63.247,53.014 53.761,62.532 42.04,62.555ZM41.973,27.557C34.366,27.57 28.209,33.751 28.222,41.359C28.237,48.968 34.418,55.125 42.025,55.11C49.635,55.095 55.792,48.916 55.777,41.307C55.763,33.697 49.581,27.542 41.973,27.557Z" clip-rule="evenodd" fill-rule="evenodd" fill="#FFFFFF"/>
<path d="M14.855,2.227C17.48,1.198 20.484,0.494 24.882,0.286C29.291,0.075 30.698,0.026 41.921,0.005C53.146,-0.016 54.553,0.026 58.962,0.222C63.361,0.412 66.367,1.106 68.997,2.124C71.718,3.172 74.027,4.584 76.327,6.875C78.628,9.169 80.045,11.47 81.107,14.187C82.134,16.815 82.839,19.816 83.048,24.217C83.257,28.624 83.307,30.03 83.329,41.254C83.35,52.477 83.305,53.886 83.112,58.297C82.92,62.694 82.228,65.7 81.21,68.329C80.159,71.051 78.75,73.359 76.459,75.66C74.167,77.962 71.864,79.378 69.147,80.441C66.519,81.467 63.518,82.172 59.12,82.382C54.711,82.591 53.304,82.64 42.077,82.662C30.856,82.683 29.449,82.64 25.04,82.446C20.641,82.253 17.634,81.561 15.005,80.544C12.284,79.492 9.975,78.084 7.675,75.791C5.372,73.499 3.954,71.197 2.894,68.479C1.865,65.853 1.163,62.851 0.953,58.454C0.743,54.044 0.693,52.635 0.672,41.412C0.65,30.188 0.695,28.782 0.887,24.373C1.082,19.973 1.771,16.968 2.789,14.336C3.84,11.616 5.249,9.309 7.543,7.006C9.835,4.706 12.138,3.286 14.855,2.227ZM17.688,73.601C19.146,74.162 21.334,74.831 25.364,75.007C29.725,75.195 31.03,75.237 42.064,75.216C53.102,75.195 54.407,75.149 58.766,74.944C62.792,74.752 64.98,74.075 66.435,73.507C68.365,72.753 69.739,71.851 71.182,70.406C72.626,68.956 73.519,67.578 74.266,65.648C74.829,64.188 75.497,61.999 75.673,57.969C75.864,53.611 75.904,52.304 75.883,41.268C75.863,30.234 75.816,28.927 75.608,24.568C75.418,20.541 74.742,18.352 74.173,16.899C73.419,14.967 72.52,13.595 71.071,12.15C69.622,10.705 68.244,9.815 66.312,9.067C64.856,8.504 62.665,7.837 58.638,7.661C54.277,7.47 52.97,7.431 41.934,7.452C30.9,7.474 29.595,7.518 25.236,7.724C21.207,7.916 19.022,8.592 17.565,9.161C15.636,9.915 14.262,10.811 12.817,12.262C11.375,13.712 10.482,15.087 9.734,17.021C9.175,18.478 8.501,20.669 8.328,24.696C8.138,29.057 8.098,30.364 8.119,41.398C8.139,52.434 8.186,53.741 8.391,58.098C8.58,62.127 9.262,64.313 9.828,65.771C10.582,67.699 11.481,69.073 12.928,70.518C14.379,71.957 15.757,72.853 17.688,73.601Z" clip-rule="evenodd" fill-rule="evenodd" fill="#FFFFFF"/>
</svg>
