<svg width="82" height="28" viewBox="0 0 82 28" fill="none" xmlns="http://www.w3.org/2000/svg" xmlns:xlink="http://www.w3.org/1999/xlink">
<path d="M40.881,1.187L35.471,26.48L28.928,26.48L34.34,1.187L40.881,1.187ZM68.409,17.519L71.854,8.021L73.836,17.519L68.409,17.519ZM75.709,26.48L81.761,26.48L76.48,1.187L70.894,1.187C69.639,1.187 68.58,1.917 68.108,3.043L58.292,26.48L65.163,26.48L66.527,22.703L74.921,22.703L75.709,26.48ZM58.633,18.222C58.661,11.546 49.401,11.179 49.465,8.197C49.485,7.288 50.35,6.324 52.24,6.077C53.179,5.954 55.761,5.861 58.692,7.21L59.84,1.846C58.266,1.275 56.239,0.725 53.719,0.725C47.253,0.725 42.701,4.163 42.663,9.086C42.622,12.727 45.912,14.759 48.391,15.969C50.94,17.209 51.797,18.003 51.785,19.112C51.769,20.81 49.752,21.557 47.871,21.587C44.581,21.639 42.671,20.699 41.15,19.99L39.964,25.532C41.492,26.234 44.314,26.844 47.242,26.875C54.114,26.875 58.611,23.48 58.633,18.222ZM31.532,1.187L20.932,26.48L14.014,26.48L8.798,6.295C8.481,5.051 8.206,4.597 7.243,4.072C5.671,3.22 3.074,2.419 0.788,1.922L0.944,1.187L12.077,1.187C13.496,1.187 14.772,2.132 15.094,3.766L17.85,18.403L24.658,1.187L31.532,1.187Z" fill="#1434CB"/>
</svg>
