<svg width="20" height="27" viewBox="0 0 20 27" fill="none" xmlns="http://www.w3.org/2000/svg">
<path d="M3.98889 0.734899C6.58889 -1.27621 9.41111 1.17934 10.0444 5.00157C10.5222 5.00157 10.9889 5.1349 11.4111 5.37934C11.9889 4.71268 12.5 3.80157 12.3 2.77934C11.8333 0.390454 14.5111 -1.54288 17.0556 1.75712C19.0667 4.35712 16.6111 7.17934 12.7778 7.81268C12.7778 8.29045 12.6556 8.76823 12.4 9.19045C13.0667 9.75712 13.9778 10.2682 15 10.0682C17.3667 9.60156 19.3111 12.2682 16.0111 14.8238C13.4111 16.8349 10.5889 14.3793 9.95556 10.5571C9.47778 10.5571 9.01111 10.4127 8.6 10.1682C8.02222 10.8349 7.5 11.7571 7.7 12.7793C8.16667 15.1571 5.48889 17.1016 2.94444 13.8016C0.922222 11.1905 3.38889 8.36823 7.22222 7.74601C7.22222 7.26823 7.36667 6.80156 7.61111 6.37934C6.94445 5.81268 6.03333 5.29045 5 5.49045C2.63333 5.95712 0.688889 3.29045 3.98889 0.734899ZM2.22222 17.7793H4.44444C5.03381 17.7793 5.59905 18.0135 6.01579 18.4302C6.43254 18.847 6.66667 19.4122 6.66667 20.0016V26.6682H4.44444V24.446H2.22222V26.6682H0V20.0016C0 19.4122 0.234126 18.847 0.650874 18.4302C1.06762 18.0135 1.63285 17.7793 2.22222 17.7793ZM2.22222 20.0016V22.2238H4.44444V20.0016H2.22222ZM11.0333 17.7793H13.3333L10.0778 26.6682H7.77778L11.0333 17.7793ZM16.6667 17.7793H20V20.0016H16.6667V24.446H20V26.6682H16.6667C16.0773 26.6682 15.5121 26.4341 15.0953 26.0174C14.6786 25.6006 14.4444 25.0354 14.4444 24.446V20.0016C14.4444 19.4122 14.6786 18.847 15.0953 18.4302C15.5121 18.0135 16.0773 17.7793 16.6667 17.7793Z" fill="#0278AE"/>
</svg>
