<svg width="20" height="20" viewBox="0 0 20 20" fill="none" xmlns="http://www.w3.org/2000/svg">
<path d="M2.32558 2.91652C2.32566 2.5631 2.44882 2.22073 2.6739 1.94825C2.89899 1.67576 3.21194 1.49017 3.55899 1.42336C3.90604 1.35655 4.26553 1.41269 4.57569 1.58213C4.88585 1.75157 5.12731 2.02374 5.2586 2.35187L5.39256 2.68489C4.81929 3.10466 4.37468 3.67621 4.10884 4.33513C3.73151 5.26036 3.72484 6.29534 4.09023 7.22536C4.12457 7.3123 4.17603 7.39146 4.24155 7.45812C4.30708 7.52479 4.38533 7.57761 4.47167 7.61345C4.55801 7.64928 4.65066 7.66741 4.74414 7.66673C4.83761 7.66606 4.93 7.64662 5.01581 7.60954L10.56 5.22257C10.7264 5.15102 10.8585 5.01754 10.9283 4.85036C10.9981 4.68318 11.0001 4.4954 10.934 4.32675C10.7568 3.86904 10.4901 3.45125 10.1496 3.09778C9.80905 2.74432 9.40148 2.46228 8.9507 2.26815C8.22667 1.95723 7.42017 1.89444 6.65674 2.08954L6.55442 1.83373C6.3028 1.20434 5.83981 0.682258 5.24502 0.357209C4.65022 0.0321604 3.96078 -0.0755489 3.29518 0.0525941C2.62959 0.180737 2.02942 0.536729 1.59782 1.05938C1.16623 1.58203 0.930178 2.2387 0.930233 2.91652V9.30257H0.697674C0.51264 9.30257 0.335183 9.37607 0.204344 9.50691C0.0735048 9.63775 0 9.81521 0 10.0002C0 10.1853 0.0735048 10.3627 0.204344 10.4936C0.335183 10.6244 0.51264 10.6979 0.697674 10.6979H0.930233V11.0281C0.930233 11.377 0.930233 11.5816 0.945116 11.8095C1.07721 13.8905 2.20093 15.8114 3.8307 17.0672L3.79442 17.1305L2.86419 18.9909C2.78324 19.1563 2.77092 19.3469 2.82992 19.5213C2.88892 19.6957 3.01445 19.8397 3.17916 19.9219C3.34387 20.0042 3.5344 20.0179 3.70924 19.9603C3.88408 19.9027 4.02905 19.7783 4.11256 19.6142L5.01302 17.8142C5.76281 18.1961 6.57625 18.4373 7.41302 18.5258C7.64093 18.5491 7.77953 18.5537 8.01581 18.563H8.02233C8.7107 18.5891 9.38419 18.6049 10 18.6049C10.6158 18.6049 11.2893 18.5891 11.9777 18.563H11.9842C12.2205 18.5537 12.36 18.5491 12.587 18.5258C13.4237 18.4373 14.2372 18.1961 14.987 17.8142L15.8874 19.6151C15.9284 19.6971 15.9852 19.7702 16.0544 19.8302C16.1236 19.8903 16.204 19.9361 16.2909 19.9651C16.3779 19.9941 16.4697 20.0056 16.5611 19.9991C16.6525 19.9926 16.7418 19.9682 16.8237 19.9272C16.9057 19.8862 16.9788 19.8295 17.0388 19.7603C17.0989 19.691 17.1447 19.6107 17.1737 19.5237C17.2027 19.4368 17.2142 19.345 17.2077 19.2536C17.2012 19.1621 17.1768 19.0729 17.1358 18.9909L16.2056 17.1305L16.1702 17.0672C17.7991 15.8114 18.9237 13.8895 19.0558 11.8095C19.0698 11.5816 19.0698 11.377 19.0698 11.0281V10.9928C19.0698 10.937 19.0698 10.8784 19.066 10.8254C19.0632 10.7827 19.0588 10.7402 19.053 10.6979H19.3023C19.4874 10.6979 19.6648 10.6244 19.7957 10.4936C19.9265 10.3627 20 10.1853 20 10.0002C20 9.81521 19.9265 9.63775 19.7957 9.50691C19.6648 9.37607 19.4874 9.30257 19.3023 9.30257H2.32558V2.91652Z" fill="#0278AE"/>
</svg>
