<svg width="20" height="20" viewBox="0 0 20 20" fill="none" xmlns="http://www.w3.org/2000/svg">
<path d="M5.75 0.75C5.75 0.551088 5.67098 0.360322 5.53033 0.21967C5.38968 0.0790177 5.19891 0 5 0C4.80109 0 4.61032 0.0790177 4.46967 0.21967C4.32902 0.360322 4.25 0.551088 4.25 0.75V2.33C2.81 2.445 1.866 2.727 1.172 3.422C0.477 4.116 0.195 5.061 0.079 6.5H19.921C19.805 5.06 19.523 4.116 18.828 3.422C18.134 2.727 17.189 2.445 15.75 2.329V0.75C15.75 0.551088 15.671 0.360322 15.5303 0.21967C15.3897 0.0790177 15.1989 0 15 0C14.8011 0 14.6103 0.0790177 14.4697 0.21967C14.329 0.360322 14.25 0.551088 14.25 0.75V2.263C13.585 2.25 12.839 2.25 12 2.25H8C7.161 2.25 6.415 2.25 5.75 2.263V0.75Z" fill="#0278AE"/>
<path fill-rule="evenodd" clip-rule="evenodd" d="M0 9.5C0 8.661 1.11759e-08 7.915 0.013 7.25H19.987C20 7.915 20 8.661 20 9.5V11.5C20 15.271 20 17.157 18.828 18.328C17.656 19.499 15.771 19.5 12 19.5H8C4.229 19.5 2.343 19.5 1.172 18.328C0.000999928 17.156 0 15.271 0 11.5V9.5ZM15 11.5C15.2652 11.5 15.5196 11.3946 15.7071 11.2071C15.8946 11.0196 16 10.7652 16 10.5C16 10.2348 15.8946 9.98043 15.7071 9.79289C15.5196 9.60536 15.2652 9.5 15 9.5C14.7348 9.5 14.4804 9.60536 14.2929 9.79289C14.1054 9.98043 14 10.2348 14 10.5C14 10.7652 14.1054 11.0196 14.2929 11.2071C14.4804 11.3946 14.7348 11.5 15 11.5ZM15 15.5C15.2652 15.5 15.5196 15.3946 15.7071 15.2071C15.8946 15.0196 16 14.7652 16 14.5C16 14.2348 15.8946 13.9804 15.7071 13.7929C15.5196 13.6054 15.2652 13.5 15 13.5C14.7348 13.5 14.4804 13.6054 14.2929 13.7929C14.1054 13.9804 14 14.2348 14 14.5C14 14.7652 14.1054 15.0196 14.2929 15.2071C14.4804 15.3946 14.7348 15.5 15 15.5ZM11 10.5C11 10.7652 10.8946 11.0196 10.7071 11.2071C10.5196 11.3946 10.2652 11.5 10 11.5C9.73478 11.5 9.48043 11.3946 9.29289 11.2071C9.10536 11.0196 9 10.7652 9 10.5C9 10.2348 9.10536 9.98043 9.29289 9.79289C9.48043 9.60536 9.73478 9.5 10 9.5C10.2652 9.5 10.5196 9.60536 10.7071 9.79289C10.8946 9.98043 11 10.2348 11 10.5ZM11 14.5C11 14.7652 10.8946 15.0196 10.7071 15.2071C10.5196 15.3946 10.2652 15.5 10 15.5C9.73478 15.5 9.48043 15.3946 9.29289 15.2071C9.10536 15.0196 9 14.7652 9 14.5C9 14.2348 9.10536 13.9804 9.29289 13.7929C9.48043 13.6054 9.73478 13.5 10 13.5C10.2652 13.5 10.5196 13.6054 10.7071 13.7929C10.8946 13.9804 11 14.2348 11 14.5ZM5 11.5C5.26522 11.5 5.51957 11.3946 5.70711 11.2071C5.89464 11.0196 6 10.7652 6 10.5C6 10.2348 5.89464 9.98043 5.70711 9.79289C5.51957 9.60536 5.26522 9.5 5 9.5C4.73478 9.5 4.48043 9.60536 4.29289 9.79289C4.10536 9.98043 4 10.2348 4 10.5C4 10.7652 4.10536 11.0196 4.29289 11.2071C4.48043 11.3946 4.73478 11.5 5 11.5ZM5 15.5C5.26522 15.5 5.51957 15.3946 5.70711 15.2071C5.89464 15.0196 6 14.7652 6 14.5C6 14.2348 5.89464 13.9804 5.70711 13.7929C5.51957 13.6054 5.26522 13.5 5 13.5C4.73478 13.5 4.48043 13.6054 4.29289 13.7929C4.10536 13.9804 4 14.2348 4 14.5C4 14.7652 4.10536 15.0196 4.29289 15.2071C4.48043 15.3946 4.73478 15.5 5 15.5Z" fill="#0278AE"/>
</svg>
