<svg width="22" height="15" viewBox="0 0 22 15" fill="none" xmlns="http://www.w3.org/2000/svg">
<path d="M1 13.5V1L9.75 13.5V1M14.75 13.5H21M14.75 4.75C14.75 5.74456 15.0792 6.69839 15.6653 7.40165C16.2513 8.10491 17.0462 8.5 17.875 8.5C18.7038 8.5 19.4987 8.10491 20.0847 7.40165C20.6708 6.69839 21 5.74456 21 4.75C21 3.75544 20.6708 2.80161 20.0847 2.09835C19.4987 1.39509 18.7038 1 17.875 1C17.0462 1 16.2513 1.39509 15.6653 2.09835C15.0792 2.80161 14.75 3.75544 14.75 4.75Z" stroke="#0278AE" stroke-width="2" stroke-linecap="round" stroke-linejoin="round"/>
</svg>
