<svg width="14" height="15" viewBox="0 0 14 15" fill="none" xmlns="http://www.w3.org/2000/svg">
<path fill-rule="evenodd" clip-rule="evenodd" d="M4.605 1.55163C4.29593 1.5519 3.99961 1.67486 3.78116 1.8935C3.56271 2.11214 3.44 2.40856 3.44 2.71763C3.44 2.91654 3.36098 3.10731 3.22033 3.24796C3.07968 3.38861 2.88891 3.46763 2.69 3.46763C2.49109 3.46763 2.30032 3.38861 2.15967 3.24796C2.01902 3.10731 1.94 2.91654 1.94 2.71763C1.93314 2.36325 1.99701 2.01105 2.12788 1.68165C2.25875 1.35225 2.45399 1.05225 2.70219 0.799197C2.95038 0.546148 3.24654 0.345132 3.57335 0.207906C3.90016 0.0706801 4.25105 0 4.6055 0C4.95995 0 5.31084 0.0706801 5.63765 0.207906C5.96446 0.345132 6.26062 0.546148 6.50881 0.799197C6.75701 1.05225 6.95225 1.35225 7.08312 1.68165C7.21399 2.01105 7.27786 2.36325 7.271 2.71763V3.88263H10.561V2.71763C10.561 2.40839 10.4382 2.11181 10.2195 1.89314C10.0008 1.67448 9.70424 1.55163 9.395 1.55163C9.19609 1.55163 9.00532 1.47261 8.86467 1.33196C8.72402 1.19131 8.645 1.00054 8.645 0.801631C8.645 0.602719 8.72402 0.411953 8.86467 0.271301C9.00532 0.130649 9.19609 0.0516309 9.395 0.0516309C10.1019 0.0518961 10.7797 0.332894 11.2795 0.832838C11.7793 1.33278 12.06 2.01074 12.06 2.71763V8.71963C12.06 8.91854 11.981 9.10931 11.8403 9.24996C11.6997 9.39061 11.5089 9.46963 11.31 9.46963C11.1111 9.46963 10.9203 9.39061 10.7797 9.24996C10.639 9.10931 10.56 8.91854 10.56 8.71963V8.25763H7.271V8.84863C7.271 9.04754 7.19198 9.23831 7.05133 9.37896C6.91068 9.51961 6.71991 9.59863 6.521 9.59863C6.32209 9.59863 6.13132 9.51961 5.99067 9.37896C5.85002 9.23831 5.771 9.04754 5.771 8.84863V2.71763C5.771 2.40839 5.64815 2.11181 5.42949 1.89314C5.21082 1.67448 4.91424 1.55163 4.605 1.55163ZM7.271 6.75663H10.561V5.38263H7.27V6.75763L7.271 6.75663ZM1.997 10.8586C2.09543 10.858 2.19187 10.8863 2.27423 10.9402C2.3566 10.9941 2.42122 11.0712 2.46 11.1616C2.624 11.5456 2.906 11.8686 3.265 12.0836C3.955 12.4976 5.045 12.4976 5.735 12.0836C6.09309 11.868 6.37461 11.5455 6.54 11.1616C6.57842 11.0714 6.64251 10.9945 6.7243 10.9405C6.80609 10.8864 6.90196 10.8576 7 10.8576C7.09804 10.8576 7.19391 10.8864 7.2757 10.9405C7.35749 10.9945 7.42158 11.0714 7.46 11.1616C7.624 11.5456 7.906 11.8686 8.265 12.0836C8.955 12.4976 10.045 12.4976 10.735 12.0836C11.0931 11.868 11.3746 11.5455 11.54 11.1616C11.5786 11.071 11.6431 10.9939 11.7254 10.9398C11.8077 10.8857 11.9042 10.8572 12.0027 10.8577C12.1011 10.8582 12.1973 10.8879 12.279 10.9428C12.3607 10.9978 12.4244 11.0756 12.462 11.1666C12.5674 11.4203 12.728 11.6473 12.9321 11.8312C13.1362 12.0151 13.3787 12.1512 13.642 12.2296C13.7453 12.2602 13.836 12.3234 13.9005 12.4097C13.965 12.496 13.9999 12.6009 14 12.7086V13.5276C14 13.6602 13.9473 13.7874 13.8536 13.8812C13.7598 13.975 13.6326 14.0276 13.5 14.0276H0.5C0.367392 14.0276 0.240215 13.975 0.146447 13.8812C0.0526784 13.7874 0 13.6602 0 13.5276V12.7076C2.47147e-05 12.6 0.0347793 12.4953 0.0990979 12.409C0.163416 12.3227 0.253865 12.2594 0.357 12.2286C0.620357 12.1504 0.862986 12.0145 1.06727 11.8308C1.27155 11.6471 1.43235 11.4202 1.538 11.1666C1.57582 11.0757 1.63965 10.998 1.72148 10.9432C1.80332 10.8884 1.89951 10.859 1.998 10.8586H1.997Z" fill="#0278AE"/>
</svg>
