<svg width="20" height="15" viewBox="0 0 20 15" fill="none" xmlns="http://www.w3.org/2000/svg">
<path d="M0 3.4375C0 2.52582 0.362164 1.65148 1.00682 1.00682C1.65148 0.362164 2.52582 0 3.4375 0H16.5625C17.4742 0 18.3485 0.362164 18.9932 1.00682C19.6378 1.65148 20 2.52582 20 3.4375V11.5625C20 12.4742 19.6378 13.3485 18.9932 13.9932C18.3485 14.6378 17.4742 15 16.5625 15H3.4375C2.52582 15 1.65148 14.6378 1.00682 13.9932C0.362164 13.3485 0 12.4742 0 11.5625V3.4375ZM11.25 3.125C11.25 3.29076 11.3158 3.44973 11.4331 3.56694C11.5503 3.68415 11.7092 3.75 11.875 3.75H12.8663L10.8075 5.8075C10.7494 5.86561 10.7033 5.9346 10.6718 6.01052C10.6404 6.08645 10.6242 6.16782 10.6242 6.25C10.6242 6.33218 10.6404 6.41356 10.6718 6.48948C10.7033 6.5654 10.7494 6.63439 10.8075 6.6925C10.8656 6.75061 10.9346 6.79671 11.0105 6.82815C11.0864 6.8596 11.1678 6.87579 11.25 6.87579C11.3322 6.87579 11.4136 6.8596 11.4895 6.82815C11.5654 6.79671 11.6344 6.75061 11.6925 6.6925L13.75 4.63375V5.625C13.75 5.79076 13.8158 5.94973 13.9331 6.06694C14.0503 6.18415 14.2092 6.25 14.375 6.25C14.5408 6.25 14.6997 6.18415 14.8169 6.06694C14.9342 5.94973 15 5.79076 15 5.625V3.125C15 2.95924 14.9342 2.80027 14.8169 2.68306C14.6997 2.56585 14.5408 2.5 14.375 2.5H11.875C11.7092 2.5 11.5503 2.56585 11.4331 2.68306C11.3158 2.80027 11.25 2.95924 11.25 3.125ZM9.1925 8.3075C9.13444 8.2493 9.06547 8.20312 8.98954 8.17161C8.91361 8.1401 8.83221 8.12388 8.75 8.12388C8.66779 8.12388 8.58639 8.1401 8.51046 8.17161C8.43453 8.20312 8.36556 8.2493 8.3075 8.3075L6.25 10.3663V9.375C6.25 9.20924 6.18415 9.05027 6.06694 8.93306C5.94973 8.81585 5.79076 8.75 5.625 8.75C5.45924 8.75 5.30027 8.81585 5.18306 8.93306C5.06585 9.05027 5 9.20924 5 9.375V11.875C5 12.0408 5.06585 12.1997 5.18306 12.3169C5.30027 12.4342 5.45924 12.5 5.625 12.5H8.125C8.29076 12.5 8.44973 12.4342 8.56694 12.3169C8.68415 12.1997 8.75 12.0408 8.75 11.875C8.75 11.7092 8.68415 11.5503 8.56694 11.4331C8.44973 11.3158 8.29076 11.25 8.125 11.25H7.13375L9.1925 9.1925C9.2507 9.13444 9.29688 9.06547 9.32839 8.98954C9.3599 8.91361 9.37612 8.83221 9.37612 8.75C9.37612 8.66779 9.3599 8.58639 9.32839 8.51046C9.29688 8.43453 9.2507 8.36556 9.1925 8.3075Z" fill="#0278AE"/>
</svg>
