<svg width="22" height="17" viewBox="0 0 22 17" fill="none" xmlns="http://www.w3.org/2000/svg">
<path d="M18.1429 1H3.85714C2.27919 1 1 2.27919 1 3.85714V12.4286C1 14.0065 2.27919 15.2857 3.85714 15.2857H18.1429C19.7208 15.2857 21 14.0065 21 12.4286V3.85714C21 2.27919 19.7208 1 18.1429 1Z" stroke="#0278AE" stroke-width="2"/>
<path d="M16.7143 3.85742H12.4286C11.6396 3.85742 11 4.49702 11 5.28599V11.0003C11 11.7893 11.6396 12.4289 12.4286 12.4289H16.7143C17.5033 12.4289 18.1429 11.7893 18.1429 11.0003V5.28599C18.1429 4.49702 17.5033 3.85742 16.7143 3.85742Z" fill="#0278AE"/>
</svg>
