<svg width="20" height="17" viewBox="0 0 20 17" fill="none" xmlns="http://www.w3.org/2000/svg">
<path d="M18.1818 0H1.81818C0.818182 0 0 0.818182 0 1.81818V12.7273C0 13.7273 0.818182 14.5455 1.81818 14.5455H6.36364V15.4545C6.36364 15.9545 6.77273 16.3636 7.27273 16.3636H12.7273C13.2273 16.3636 13.6364 15.9545 13.6364 15.4545V14.5455H18.1818C19.1818 14.5455 19.9909 13.7273 19.9909 12.7273L20 1.81818C20 0.818182 19.1818 0 18.1818 0ZM17.2727 12.7273H2.72727C2.22727 12.7273 1.81818 12.3182 1.81818 11.8182V2.72727C1.81818 2.22727 2.22727 1.81818 2.72727 1.81818H17.2727C17.7727 1.81818 18.1818 2.22727 18.1818 2.72727V11.8182C18.1818 12.3182 17.7727 12.7273 17.2727 12.7273Z" fill="#0278AE"/>
</svg>
