<svg width="20" height="15" viewBox="0 0 20 15" fill="none" xmlns="http://www.w3.org/2000/svg">
<path d="M10 14.1667C9.41667 14.1667 8.92361 13.9653 8.52083 13.5625C8.11806 13.1597 7.91667 12.6667 7.91667 12.0833C7.91667 11.5 8.11806 11.0069 8.52083 10.6042C8.92361 10.2014 9.41667 10 10 10C10.5833 10 11.0764 10.2014 11.4792 10.6042C11.8819 11.0069 12.0833 11.5 12.0833 12.0833C12.0833 12.6667 11.8819 13.1597 11.4792 13.5625C11.0764 13.9653 10.5833 14.1667 10 14.1667ZM5.29167 9.45833L3.54167 7.66667C4.36111 6.84722 5.32306 6.19806 6.4275 5.71917C7.53194 5.24028 8.72278 5.00056 10 5C11.2772 4.99944 12.4683 5.2425 13.5733 5.72917C14.6783 6.21583 15.64 6.87556 16.4583 7.70833L14.7083 9.45833C14.0972 8.84722 13.3889 8.36806 12.5833 8.02083C11.7778 7.67361 10.9167 7.5 10 7.5C9.08333 7.5 8.22222 7.67361 7.41667 8.02083C6.61111 8.36806 5.90278 8.84722 5.29167 9.45833ZM1.75 5.91667L0 4.16667C1.27778 2.86111 2.77083 1.84028 4.47917 1.10417C6.1875 0.368055 8.02778 0 10 0C11.9722 0 13.8125 0.368055 15.5208 1.10417C17.2292 1.84028 18.7222 2.86111 20 4.16667L18.25 5.91667C17.1806 4.84722 15.9411 4.01056 14.5317 3.40667C13.1222 2.80278 11.6117 2.50056 10 2.5C8.38833 2.49944 6.87806 2.80167 5.46917 3.40667C4.06028 4.01167 2.82056 4.84833 1.75 5.91667Z" fill="#0278AE"/>
</svg>
