<svg width="11" height="9" viewBox="0 0 11 9" fill="none" xmlns="http://www.w3.org/2000/svg">
<path d="M10.5 4.5H1.5C1.22 4.5 1 4.28 1 4C1 3.72 1.22 3.5 1.5 3.5H10.5C10.78 3.5 11 3.72 11 4C11 4.28 10.78 4.5 10.5 4.5Z" fill="white"/>
<path d="M4 8C3.93442 8.0008 3.86941 7.98787 3.80913 7.96203C3.74885 7.9362 3.69465 7.89804 3.65 7.85L0.15 4.35C-0.05 4.15 -0.05 3.84 0.15 3.64L3.65 0.15C3.85 -0.05 4.16 -0.05 4.36 0.15C4.56 0.35 4.56 0.66 4.36 0.86L1.21 4.01L4.36 7.16C4.56 7.36 4.56 7.67 4.36 7.87C4.26 7.97 4.13 8.02 4.01 8.02L4 8Z" fill="white"/>
</svg>
