<svg width="22" height="20" viewBox="0 0 22 20" fill="none" xmlns="http://www.w3.org/2000/svg">
<path d="M9 20V18H22V20H9ZM10 17C10 15.65 10.425 14.471 11.275 13.463C12.125 12.455 13.2 11.834 14.5 11.6V10.975C14.5 10.6917 14.596 10.4543 14.788 10.263C14.98 10.0717 15.2173 9.97567 15.5 9.975C15.7827 9.97433 16.0203 10.0703 16.213 10.263C16.4057 10.4557 16.5013 10.693 16.5 10.975V11.6C17.7833 11.8333 18.8543 12.4543 19.713 13.463C20.5717 14.4717 21.0007 15.6507 21 17H10ZM0 11H4V0H0V11ZM6 11H7.975L15.025 8.375C15.3083 8.25833 15.5417 8.071 15.725 7.813C15.9083 7.555 16 7.26733 16 6.95C16 6.68333 15.9083 6.45833 15.725 6.275C15.5417 6.09167 15.3167 6 15.05 6H12L10.25 6.675L9.9 5.75L12 5H19C19.5333 5 20 4.80833 20.4 4.425C20.8 4.04167 21 3.56667 21 3L13 0L6 1.95V11Z" fill="#0278AE"/>
</svg>
